<ttFont>
          <CharString index="0">
            rmoveto
            219 139 122 227 39 hvcurveto
            6 31 3 32 33 vvcurveto
            166 -110 98 -186 1 vhcurveto
            -220 -139 -122 -225 -39 hvcurveto
            -6 -31 -3 -32 -33 vvcurveto
            -168 110 -99 187 vhcurveto
            82 vmoveto
            -125 -74 69 116 29 2 27 5 26 hvcurveto
            189 33 99 91 170 -31 callsubr
            74 -68 -116 -29 -2 -27 -5 -26 hvcurveto
            -190 -33 -99 -91 -169 hhcurveto
            return
          </CharString>
          <CharString index="1">
            -107 callgsubr
            endchar
          </CharString>
          <CharString index="2">
            rmoveto
            167 110 80 185 33 hvcurveto
            76 433 -54 callgsubr
            -77 -438 rlineto
            -118 -21 -79 -61 -117 hhcurveto
            -102 -58 47 91 15 2 16 3 18 hvcurveto
            75 430 -54 callgsubr
            -74 -425 rlineto
            -4 -22 -2 -21 -20 vvcurveto
            -137 93 -73 165 vhcurveto
            return
          </CharString>
          <CharString index="3">
            -86 callgsubr
            -145 -49 callsubr
            -123 hlineto
            -141 -420 rmoveto
            106 193 79 145 rlineto
            5 hlineto
            29 -149 37 -189 rlineto
            return
          </CharString>
          <CharString index="4">
            50 37 -31 56 hhcurveto
            60 34 48 56 10 hvcurveto
            -65 hlineto
            -23 -6 -13 -8 -15 -50 -37 31 -56 hhcurveto
            -60 -34 -48 -56 -9 hvcurveto
            return
          </CharString>
          <CharString index="5">
            rmoveto
            143 82 81 164 29 hvcurveto
            82 463 rlineto
            -66 hlineto
            -23 -71 rlineto
            -6 hlineto
            55 -28 -58 28 -73 hhcurveto
            -149 -102 -140 -209 -125 66 -56 104 70 52 27 45 41 hvcurveto
            6 hlineto
            -4 -21 rlineto
            -114 -22 -58 -55 -88 hhcurveto
            -64 -40 24 61 -2 hvcurveto
            -86 -10 hlineto
            -98 77 -49 117 vhcurveto
            34 263 rmoveto
            -77 -35 30 81 150 58 123 121 76 32 -43 -80 -130 -59 -131 -116 hvcurveto
            endchar
          </CharString>
          <CharString index="6">
            56 hlineto
            5 28 rlineto
            34 3 35 20 44 vvcurveto
            40 -45 9 -36 -21 -31 -3 -5 -22 vhcurveto
            -7 -39 rlineto
            60 hlineto
            18 10 -3 -11 return
          </CharString>
          <CharString index="7">
            534 -69 callsubr
            -439 hlineto
            40 -22 callgsubr
            389 -43 callgsubr
            -389 hlineto
            37 211 rlineto
            433 -69 callsubr
            -528 hlineto
            return
          </CharString>
          <CharString index="8">
            rmoveto
            87 hlineto
            17 95 rlineto
            -87 hlineto
            return
          </CharString>
          <CharString index="9">
            rmoveto
            -19 -108 rlineto
            44 hlineto
            -18 -45 -35 -27 -53 -12 rrcurveto
            29 -36 -49 15 -61 hhcurveto
            -156 -90 -88 -181 -27 hvcurveto
            -3 -28 -2 -24 -21 vvcurveto
            -131 79 -77 135 156 90 88 181 27 vhcurveto
            3 30 3 24 22 vvcurveto
            46 -10 39 -19 31 vhcurveto
            81 29 48 64 13 90 9 54 rcurveline
            -216 -417 rmoveto
            -146 -21 -55 -61 -105 hhcurveto
            -85 -43 43 78 -2 hvcurveto
            20 1 26 4 28 vhcurveto
            146 21 55 62 105 hhcurveto
            86 43 -43 -79 2 hvcurveto
            -20 -2 -26 -4 -28 vhcurveto
            return
          </CharString>
          <CharString index="10">
            rmoveto
            137 79 81 164 28 hvcurveto
            82 463 -68 callgsubr
            -49 -281 rlineto
            -103 -18 -85 -61 -80 hhcurveto
            -45 -33 15 54 14 2 19 3 20 hvcurveto
            56 323 -68 callgsubr
            -57 -329 -85 callgsubr
            59 63 30 42 37 vhcurveto
            7 hlineto
            -4 -21 rlineto
            -114 -21 -54 -55 -83 hhcurveto
            -58 -36 24 61 -2 hvcurveto
            -86 -10 hlineto
            -98 73 -49 111 vhcurveto
            endchar
          </CharString>
          <CharString index="11">
            rmoveto
            102 63 97 112 59 hvcurveto
            261 499 2 callsubr
            -130 -263 rlineto
            -33 -66 -43 -99 0 vvcurveto
            -5 hlineto
            0 -16 106 -12 59 vhcurveto
            -52 -5 callsubr
            -91 hlineto
            110 -2 callgsubr
            -90 -41 -56 -27 -57 hhcurveto
            -34 hlineto
            -11 -57 rlineto
            -5 17 22 -3 39 hhcurveto
            return
          </CharString>
          <CharString index="12">
            rmoveto
            167 133 81 177 30 hvcurveto
            -93 hlineto
            -119 -22 -93 -58 -128 hhcurveto
            -124 -63 55 134 44 5 42 9 37 hvcurveto
            146 34 100 90 156 hhcurveto
            100 60 -45 -92 -12 -2 -15 -2 -15 hvcurveto
            97 hlineto
            3 20 2 19 18 vvcurveto
            136 -106 67 -158 -97 -82 -28 -49 -64 vhcurveto
            -99 -77 -54 -131 -163 vvcurveto
            -176 98 -86 193 vhcurveto
            endchar
          </CharString>
          <CharString index="13">
            -99 callsubr
            170 -95 -99 callsubr
            return
          </CharString>
          <CharString index="14">
            -103 callgsubr
            -462 -78 callsubr
            return
          </CharString>
          <CharString index="15">
            rmoveto
            61 hlineto
            22 9 21 31 64 hhcurveto
            64 12 -31 -22 -1 hvcurveto
            61 hlineto
            1 6 1 6 6 vvcurveto
            50 -34 49 -93 -120 -36 -62 -55 -10 vhcurveto
            return
          </CharString>
          <CharString index="16">
            131 hlineto
            193 481 rlineto
            15 38 25 74 0 vvcurveto
            5 hlineto
            0 1 -68 2 -44 vhcurveto
            23 -481 rlineto
            131 hlineto
            319 -8 callsubr
            -218 -484 rlineto
            -11 -24 -35 -81 0 vvcurveto
            -5 hlineto
            0 0 72 -2 33 vhcurveto
            -25 484 rlineto
            -140 hlineto
            -191 -484 rlineto
            -6 -14 -33 -91 0 vvcurveto
            -5 hlineto
            0 -4 81 -3 24 vhcurveto
            -53 484 -3 callsubr
          </CharString>
          <CharString index="17">
            39 727 868 -88 callgsubr
            return
          </CharString>
          <CharString index="18">
            554 723 -87 callgsubr
            return
          </CharString>
          <CharString index="19">
            95 hlineto
            50 283 rlineto
            256 hlineto
            99 -283 rlineto
            102 hlineto
            -105 295 rlineto
            96 29 68 83 106 vvcurveto
            104 -63 69 -130 vhcurveto
            -347 hlineto
            39 -320 rmoveto
            41 237 rlineto
            257 hlineto
            70 35 -35 -60 -89 -66 -53 -80 hvcurveto
            return
          </CharString>
          <CharString index="20">
            -75 callsubr
            endchar
          </CharString>
          <CharString index="21">
            27 47 vvcurveto
            55 -45 30 -70 -66 -55 -40 -62 -10 vhcurveto
            -3 -19 rlineto
            63 hlineto
            2 14 rlineto
            36 5 31 16 33 hhcurveto
            28 23 -11 -29 -40 -36 -19 -35 hvcurveto
            -32 hlineto
            -10 -56 rlineto
            30 hlineto
            32 29 -9 -31 -46 -36 -19 -41 -36 -20 15 28 4 0 8 4 15 hvcurveto
            -63 hlineto
            -4 -14 -1 -16 -8 vvcurveto
            -54 43 -33 80 vhcurveto
            return
          </CharString>
          <CharString index="22">
            rmoveto
            76 hlineto
            -38 132 rlineto
            -97 hlineto
            -2 -3 rlineto
            200 -129 rmoveto
            76 hlineto
            -38 132 rlineto
            -97 hlineto
            -2 -3 rlineto
            return
          </CharString>
          <CharString index="23">
            450 -38 callgsubr
            -317 hlineto
            372 407 8 46 rlineto
            -413 hlineto
            -13 -73 rlineto
            278 hlineto
            -370 -406 rlineto
            return
          </CharString>
          <CharString index="24">
            606 -103 callgsubr
            return
          </CharString>
          <CharString index="25">
            95 hlineto
            50 284 341 402 rlineto
            -109 hlineto
            -262 -317 rlineto
            -5 hlineto
            -156 317 rlineto
            -104 hlineto
            200 -402 rlineto
            return
          </CharString>
          <CharString index="26">
            4 callsubr
            -63 132 rlineto
            -96 hlineto
            -1 -3 rlineto
            return
          </CharString>
          <CharString index="27">
            565 -69 callsubr
            -417 hlineto
            505 554 4 callgsubr
            -531 hlineto
            -15 -83 rlineto
            5 callgsubr
            -503 -554 rlineto
            return
          </CharString>
          <CharString index="28">
            rmoveto
            21 30 6 8 17 hvcurveto
            10 58 rlineto
            -49 hlineto
            -23 -10 11 23 2 0 6 1 5 hvcurveto
            61 345 rlineto
            89 -38 callgsubr
            -89 hlineto
            34 146 rlineto
            -96 hlineto
            -26 -146 rlineto
            -64 hlineto
            -13 -73 rlineto
            64 hlineto
            -55 -316 rlineto
            -5 -27 -4 -26 -12 vvcurveto
            -45 23 -38 71 vhcurveto
            return
          </CharString>
          <CharString index="29">
            -751 rmoveto
            -104 callsubr
            return
          </CharString>
          <CharString index="30">
            588 -102 callgsubr
            return
          </CharString>
          <CharString index="31">
            751 -103 callgsubr
            return
          </CharString>
          <CharString index="32">
            -59 callsubr
            -64 -68 -34 -49 -40 vhcurveto
            -26 callgsubr
            return
          </CharString>
          <CharString index="33">
            rmoveto
            64 hlineto
            23 6 13 8 15 -103 callsubr
            -19 return
          </CharString>
          <CharString index="34">
            rmoveto
            305 hlineto
            13 72 rlineto
            -20 callgsubr
            return
          </CharString>
          <CharString index="35">
            rlineto
            4 23 3 24 18 vvcurveto
            90 -60 34 -97 return
          </CharString>
          <CharString index="36">
            rmoveto
            74 hlineto
            50 63 rlineto
            -17 34 44 -9 54 hhcurveto
            205 71 178 173 58 -14 45 -27 32 hvcurveto
            80 101 rlineto
            -74 hlineto
            -51 -64 rlineto
            18 -35 -44 9 -54 hhcurveto
            -205 -71 -179 -174 -58 14 -45 28 -32 hvcurveto
            60 76 rmoveto
            -7 18 -3 22 27 vvcurveto
            36 3 37 9 36 vhcurveto
            88 20 50 75 99 hhcurveto
            35 28 -7 -13 20 hvcurveto
            -134 -384 rmoveto
            -35 -27 5 13 -21 hvcurveto
            254 319 rlineto
            7 -18 3 -23 -26 vvcurveto
            -48 -6 -51 -16 -44 vhcurveto
            -72 -25 -49 -55 -85 hhcurveto
            endchar
          </CharString>
          <CharString index="37">
            rmoveto
            -75 -36 35 96 151 58 122 114 82 33 -44 -80 -140 -57 -140 -119 hvcurveto
            return
          </CharString>
          <CharString index="38">
            hlineto
            15 83 rlineto
            return
          </CharString>
          <CharString index="39">
            65 -24 hmoveto
            306 hlineto
            12 71 rlineto
            -97 20 -63 41 121 vvcurveto
            26 3 30 6 34 vhcurveto
            201 37 102 73 144 hhcurveto
            114 70 -51 -132 -27 -3 -30 -6 -34 hvcurveto
            -34 -193 -85 -54 -129 -25 -12 -71 rcurveline
            308 -11 callgsubr
            -40 hlineto
            -35 -29 -3 -1 -30 hvcurveto
            111 74 67 122 165 vvcurveto
            172 -104 85 -179 -237 -149 -186 -240 -82 30 -64 56 -46 vhcurveto
            1 -39 -33 3 -23 hhcurveto
            -39 hlineto
            endchar
          </CharString>
          <CharString index="40">
            39 373 686 rmoveto
            -234 hlineto
            -53 -299 rlineto
            -74 hlineto
            -11 -63 rlineto
            74 hlineto
            -57 -324 rlineto
            274 hlineto
            117 99 39 72 70 hvcurveto
            67 71 39 103 129 vvcurveto
            188 -115 84 -196 vhcurveto
            206 -367 rmoveto
            -154 -29 -112 -82 -151 hhcurveto
            -159 hlineto
            42 241 rlineto
            173 hlineto
            11 63 rlineto
            -173 hlineto
            38 216 rlineto
            159 2 callgsubr
            79 -54 -147 -30 -3 -27 -4 -26 hvcurveto
            endchar
          </CharString>
          <CharString index="41">
            -70 callgsubr
            endchar
          </CharString>
          <CharString index="42">
            88 -61 callsubr
            return
          </CharString>
          <CharString index="43">
            274 hlineto
            117 99 39 72 70 hvcurveto
            67 71 39 103 129 vvcurveto
            188 -115 84 -196 vhcurveto
            -234 hlineto
            546 -686 rmoveto
            -80 callsubr
            -566 34 rmoveto
            91 520 rlineto
            159 2 callgsubr
            79 -54 -147 -30 -3 -27 -4 -26 hvcurveto
            -154 -29 -112 -82 -151 hhcurveto
            endchar
          </CharString>
          <CharString index="44">
            rmoveto
            80 hlineto
            107 129 -27 callgsubr
            58 -132 rmoveto
            80 hlineto
            107 129 -27 callgsubr
            return
          </CharString>
          <CharString index="45">
            rmoveto
            -27 callgsubr
            -108 -132 rlineto
            86 hlineto
            return
          </CharString>
          <CharString index="46">
            hlineto
            -58 callgsubr
            -88 hlineto
            return
          </CharString>
          <CharString index="47">
            -12 rmoveto
            80 hlineto
            671 710 -5 callgsubr
            return
          </CharString>
          <CharString index="48">
            88 hlineto
            53 301 rlineto
            103 18 85 61 80 hhcurveto
            45 33 -15 -54 -14 -2 -12 callgsubr
            hvcurveto
            -60 -343 -21 callsubr
            61 349 -72 callsubr
            return
          </CharString>
          <CharString index="49">
            464 -69 callsubr
            -369 hlineto
            106 603 -54 callgsubr
            return
          </CharString>
          <CharString index="50">
            rmoveto
            100 -42 callgsubr
            -100 hlineto
            return
          </CharString>
          <CharString index="51">
            54 368 -12 rmoveto
            196 159 159 196 196 -159 159 -196 -196 -159 -159 -196 -196 159 -159 196 hvcurveto
            47 vmoveto
            -169 -137 138 170 170 137 138 169 169 137 -138 -170 -170 -137 -138 -169 hvcurveto
            return
          </CharString>
          <CharString index="52">
            hlineto
            127 723 -68 callgsubr
            return
          </CharString>
          <CharString index="53">
            102 hlineto
            122 183 rlineto
            331 hlineto
            19 -183 rlineto
            372 -69 callsubr
            -20 callgsubr
            -23 -22 callgsubr
            318 -43 callgsubr
            -342 hlineto
            -22 211 rlineto
            445 -69 callsubr
            -595 hlineto
            -186 -420 rmoveto
            227 337 rlineto
            5 hlineto
            35 -337 rlineto
            endchar
          </CharString>
          <CharString index="54">
            1 callsubr
            74 143 17 99 rlineto
            -100 hlineto
            -19 -108 rlineto
            40 hlineto
            return
          </CharString>
          <CharString index="55">
            rlineto
            236 -69 callsubr
            -567 hlineto
            -15 -83 rlineto
            236 hlineto
            return
          </CharString>
          <CharString index="56">
            rmoveto
            88 hlineto
            17 98 -68 callgsubr
            return
          </CharString>
          <CharString index="57">
            -19 callsubr
            endchar
          </CharString>
          <CharString index="58">
            686 rlineto
            return
          </CharString>
          <CharString index="59">
            7 -71 64 hlineto
            return
          </CharString>
          <CharString index="60">
            18 hmoveto
            -92 callgsubr
            return
          </CharString>
          <CharString index="61">
            526 rlineto
            return
          </CharString>
          <CharString index="62">
            -59 callgsubr
            hvcurveto
            7 -71 64 -61 callsubr
            -53 -301 rlineto
            -103 -18 -85 -61 -80 hhcurveto
            -45 -33 15 54 14 2 19 3 20 hvcurveto
            60 343 -68 callgsubr
            return
          </CharString>
          <CharString index="63">
            625 -51 callsubr
            return
          </CharString>
          <CharString index="64">
            -16 18 hmoveto
            95 hlineto
            34 195 186 151 165 -346 rlineto
            105 hlineto
            -196 411 308 275 rlineto
            -124 hlineto
            -424 -378 67 378 -54 callgsubr
            return
          </CharString>
          <CharString index="65">
            -12 callsubr
            19 22 35 28 31 23 18 hvcurveto
            4 -59 vlineto
            -2 callsubr
            vhcurveto
            endchar
          </CharString>
          <CharString index="66">
            95 hlineto
            106 603 -52 callsubr
            return
          </CharString>
          <CharString index="67">
            -350 13 hmoveto
            -79 callgsubr
            return
          </CharString>
          <CharString index="68">
            rmoveto
            100 -42 callgsubr
            -40 hlineto
            64 134 rlineto
            -52 hlineto
            -73 -143 rlineto
            return
          </CharString>
          <CharString index="69">
            95 hlineto
            55 309 0 callgsubr
            -55 -309 rlineto
            -60 callgsubr
            -52 -294 rlineto
            -374 hlineto
            52 294 -54 callgsubr
            return
          </CharString>
          <CharString index="70">
            rmoveto
            79 hlineto
            185 200 -122 200 rlineto
            -71 hlineto
            94 -200 rlineto
            return
          </CharString>
          <CharString index="71">
            773 -99 callsubr
            return
          </CharString>
          <CharString index="72">
            -21 -173 rmoveto
            88 hlineto
            41 233 rlineto
            6 hlineto
            -46 27 47 -26 76 hhcurveto
            142 110 133 209 146 -68 62 -110 return
          </CharString>
          <CharString index="73">
            20 21 5 9 23 return
          </CharString>
          <CharString index="74">
            rmoveto
            51 hlineto
            49 132 26 146 rlineto
            -100 hlineto
            -26 -146 rlineto
            return
          </CharString>
          <CharString index="75">
            19 -16 callgsubr
            return
          </CharString>
          <CharString index="76">
            hhcurveto
            124 return
          </CharString>
          <CharString index="77">
            424 0 return
          </CharString>
          <CharString index="78">
            -70 callsubr
            endchar
          </CharString>
          <CharString index="79">
            hlineto
            121 -49 callsubr
            return
          </CharString>
          <CharString index="80">
            200 -18 17 93 -206 -17 49 197 -68 callgsubr
            -21 -197 -199 17 -17 -93 205 18 return
          </CharString>
          <CharString index="81">
            hlineto
            -11 -61 rlineto
            return
          </CharString>
          <CharString index="82">
            -10 callsubr
            95 24 61 60 11 hvcurveto
            return
          </CharString>
          <CharString index="83">
            63 128 return
          </CharString>
          <CharString index="84">
            123 -44 callsubr
            return
          </CharString>
          <CharString index="85">
            rmoveto
            -37 -19 23 56 19 1 20 4 19 hvcurveto
            54 10 25 48 50 hhcurveto
            40 18 -23 -57 return
          </CharString>
          <CharString index="86">
            rlineto
            88 hlineto
            return
          </CharString>
          <CharString index="87">
            78 444 1 callsubr
            73 143 18 99 rlineto
            -100 hlineto
            -19 -108 rlineto
            40 hlineto
            return
          </CharString>
          <CharString index="88">
            -723 -70 callgsubr
            return
          </CharString>
          <CharString index="89">
            50 hlineto
            218 163 3 21 -168 163 rlineto
            -42 hlineto
            34 -137 rlineto
            return
          </CharString>
          <CharString index="90">
            rmoveto
            0 callsubr
            234 hlineto
            69 34 -38 -66 -94 -66 -59 -82 hvcurveto
            endchar
          </CharString>
          <CharString index="91">
            rmoveto
            81 hlineto
            82 167 rlineto
            4 -104 vlineto
            return
          </CharString>
          <CharString index="92">
            hhcurveto
            43 19 -23 -58 -18 -1 -19 -3 -18 hvcurveto
            -57 -10 -27 -50 -57 hhcurveto
            return
          </CharString>
          <CharString index="93">
            -350 20 221 rmoveto
            270 hlineto
            17 98 rlineto
            -270 hlineto
            endchar
          </CharString>
          <CharString index="94">
            9 51 rlineto
            -32 hlineto
            return
          </CharString>
          <CharString index="95">
            -28 callgsubr
            -33 -11 return
          </CharString>
          <CharString index="96">
            hlineto
            3 6 4 return
          </CharString>
          <CharString index="97">
            -182 rmoveto
            return
          </CharString>
          <CharString index="98">
            100 hlineto
            20 -16 callgsubr
            -100 hlineto
            return
          </CharString>
          <CharString index="99">
            686 -54 callgsubr
            return
          </CharString>
          <CharString index="100">
            rlineto
            -85 hlineto
            return
          </CharString>
          <CharString index="101">
            hlineto
            -16 -91 rlineto
            return
          </CharString>
          <CharString index="102">
            263 rlineto
            return
          </CharString>
          <CharString index="103">
            hlineto
            47 212 rlineto
            -77 hlineto
            -47 -212 rlineto
            return
          </CharString>
          <CharString index="104">
            rlineto
            -96 hlineto
            endchar
          </CharString>
          <CharString index="105">
            -37 -27 -40 -35 -58 -24 callgsubr
            return
          </CharString>
          <CharString index="106">
            hlineto
            -11 -65 rlineto
            return
          </CharString>
          <CharString index="107">
            45 257 rlineto
            return
          </CharString>
          <CharString index="108">
            rmoveto
            52 hlineto
            return
          </CharString>
          <CharString index="109">
            rlineto
            -92 hlineto
            return
          </CharString>
          <CharString index="110">
            hlineto
            0 -7 return
          </CharString>
          <CharString index="111">
            rmoveto
            75 hlineto
            return
          </CharString>
        <CharString name=".notdef">
          -182 0 vmoveto
          500 700 -500 hlineto
          250 -305 rmoveto
          -170 255 rlineto
          340 hlineto
          -370 -555 rmoveto
          510 vlineto
          170 -255 rlineto
          230 -255 rmoveto
          -170 255 170 255 rlineto
          -370 -555 rmoveto
          170 255 170 -255 rlineto
          endchar
        </CharString>
        <CharString name="A">
          -16 -41 hmoveto
          -104 callsubr
          endchar
        </CharString>
        <CharString name="AE">
          317 -61 hmoveto
          -54 callsubr
        </CharString>
        <CharString name="AEacute">
          317 543 736 -95 callgsubr
          -712 -868 rmoveto
          -54 callsubr
        </CharString>
        <CharString name="Aacute">
          -16 377 736 -95 callgsubr
          -526 -868 -100 callgsubr
        </CharString>
        <CharString name="Abreve">
          -16 421 751 -93 callgsubr
        </CharString>
        <CharString name="Acircumflex">
          -41 callgsubr
          -438 -868 -100 callgsubr
        </CharString>
        <CharString name="Adieresis">
          -16 290 -71 callgsubr
          -535 -868 -100 callgsubr
        </CharString>
        <CharString name="Agrave">
          -16 383 736 -81 callsubr
          -339 -865 -100 callgsubr
        </CharString>
        <CharString name="Amacron">
          -16 275 772 -73 callsubr
          -329 -844 -100 callgsubr
        </CharString>
        <CharString name="Aogonek">
          -16 511 -10 callsubr
          22 24 3 11 26 hvcurveto
          -13 callsubr
          -27 -10 19 22 31 32 27 33 18 hvcurveto
          25 3 callgsubr
          -386 -686 rlineto
          100 hlineto
          100 183 rlineto
          318 hlineto
          36 -183 rlineto
          -41 -24 -34 -35 -49 vvcurveto
          -56 39 -18 34 vhcurveto
          -307 448 rmoveto
          106 193 79 145 rlineto
          5 hlineto
          29 -149 37 -189 rlineto
          endchar
        </CharString>
        <CharString name="Aring">
          -16 416 711 -69 callgsubr
          -463 -756 -100 callgsubr
        </CharString>
        <CharString name="Aringacute">
          -16 396 861 -95 callgsubr
          -545 -993 rmoveto
          -86 callgsubr
          -141 668 rlineto
          27 19 14 33 39 vvcurveto
          45 -35 35 -49 -71 -40 -48 -65 -21 7 -19 13 -13 vhcurveto
          70 19 rmoveto
          -29 -15 18 23 32 21 29 38 28 16 -19 -23 -32 -21 -28 -38 hvcurveto
          -204 -426 rmoveto
          106 193 79 145 rlineto
          5 hlineto
          29 -149 37 -189 rlineto
          endchar
        </CharString>
        <CharString name="Atilde">
          -16 262 764 rmoveto
          64 hlineto
          23 6 13 8 15 -103 callsubr
          -303 -764 -100 callgsubr
        </CharString>
        <CharString name="B">
          -16 18 hmoveto
          351 hlineto
          118 108 60 153 81 -44 45 -62 17 hvcurveto
          4 vlineto
          77 22 66 68 90 vvcurveto
          97 -75 49 -119 vhcurveto
          -299 hlineto
          43 -293 rmoveto
          37 210 rlineto
          220 hlineto
          61 38 -23 -64 -71 -58 -52 -84 hvcurveto
          -268 -310 rmoveto
          40 227 rlineto
          227 hlineto
          68 36 -31 -64 -102 -63 -30 -74 hvcurveto
          endchar
        </CharString>
        <CharString name="C">
          39 328 -12 -95 callsubr
        </CharString>
        <CharString name="CR">
          -683 endchar
        </CharString>
        <CharString name="Cacute">
          39 404 736 -95 callgsubr
          -184 -880 -95 callsubr
        </CharString>
        <CharString name="Cacute.loclPLK">
          39 398 736 -62 callgsubr
          -116 -880 -95 callsubr
        </CharString>
        <CharString name="Ccaron">
          39 405 733 -94 callgsubr
          5 -880 -95 callsubr
        </CharString>
        <CharString name="Ccedilla">
          39 692 438 rmoveto
          3 20 2 19 18 vvcurveto
          136 -106 67 -158 -97 -82 -28 -49 -64 vhcurveto
          -99 -77 -54 -131 -163 vvcurveto
          -162 83 -85 163 -13 vhcurveto
          -24 -67 -72 callgsubr
          -45 callgsubr
          8 24 160 5 125 82 29 171 rlinecurve
          -93 hlineto
          -119 -22 -93 -58 -128 hhcurveto
          -124 -63 55 134 44 5 42 9 37 hvcurveto
          146 34 100 90 156 hhcurveto
          100 60 -45 -92 -12 -2 -15 -2 -15 hvcurveto
          endchar
        </CharString>
        <CharString name="Ccircumflex">
          39 295 -77 callgsubr
          -96 -880 -95 callsubr
        </CharString>
        <CharString name="Cdotaccent">
          39 410 -36 callsubr
          -99 -880 -95 callsubr
        </CharString>
        <CharString name="D">
          39 18 hmoveto
          -81 callgsubr
          endchar
        </CharString>
        <CharString name="Dcaron">
          39 348 733 -94 callgsubr
          -248 -868 rmoveto
          -81 callgsubr
          endchar
        </CharString>
        <CharString name="Dcroat">
          -67 callsubr
        </CharString>
        <CharString name="E">
          -16 18 hmoveto
          -100 callsubr
          endchar
        </CharString>
        <CharString name="Eacute">
          -16 377 736 -95 callgsubr
          -467 -868 rmoveto
          -100 callsubr
          endchar
        </CharString>
        <CharString name="Ebreve">
          -16 421 -76 callsubr
          -403 -751 rmoveto
          -100 callsubr
          endchar
        </CharString>
        <CharString name="Ecaron">
          -16 378 733 -94 callgsubr
          -278 -868 rmoveto
          -100 callsubr
          endchar
        </CharString>
        <CharString name="Ecircumflex">
          -41 callgsubr
          -379 -868 rmoveto
          -100 callsubr
          endchar
        </CharString>
        <CharString name="Edieresis">
          -16 290 -71 callgsubr
          -476 -868 rmoveto
          -100 callsubr
          endchar
        </CharString>
        <CharString name="Edotaccent">
          -16 383 -36 callsubr
          -382 -868 rmoveto
          -100 callsubr
          endchar
        </CharString>
        <CharString name="Egrave">
          -16 383 736 -81 callsubr
          -280 -865 rmoveto
          -100 callsubr
          endchar
        </CharString>
        <CharString name="Emacron">
          -16 275 772 -73 callsubr
          -270 -844 rmoveto
          -100 callsubr
          endchar
        </CharString>
        <CharString name="Eng">
          39 442 -25 callsubr
          132 747 rlineto
          -89 hlineto
          -81 -460 -11 -62 -4 -1 -8 15 -9 14 -8 15 rlinecurve
          -270 479 -7 callsubr
          -121 -686 rlineto
          89 hlineto
          83 467 6 70 5 1 12 -17 5 -18 12 -17 rlinecurve
          266 -476 -13 -75 rlineto
          -31 -5 -18 -17 -31 hhcurveto
          -44 hlineto
          -10 -57 rlineto
          -6 16 27 -6 24 hhcurveto
          endchar
        </CharString>
        <CharString name="Eogonek">
          -16 459 -28 callgsubr
          -30 -15 16 19 35 47 30 50 17 hvcurveto
          15 83 rlineto
          -439 hlineto
          40 -22 callgsubr
          389 -43 callgsubr
          -389 hlineto
          37 211 rlineto
          433 -69 callsubr
          -528 hlineto
          -121 -686 rlineto
          433 hlineto
          -51 -25 -29 -31 -52 vvcurveto
          -56 47 -18 41 vhcurveto
          endchar
        </CharString>
        <CharString name="Eth">
          -67 callsubr
        </CharString>
        <CharString name="Euro">
          376 -12 rmoveto
          28 28 4 6 28 hvcurveto
          12 71 rlineto
          -5 -26 -26 -3 -27 hhcurveto
          -98 -113 40 142 -8 hvcurveto
          258 1 callgsubr
          -268 hlineto
          1 19 6 33 6 18 rrcurveto
          268 1 callgsubr
          -257 hlineto
          140 56 134 42 102 hhcurveto
          24 22 -3 -5 21 hvcurveto
          12 71 rlineto
          7 -28 -31 3 -31 hhcurveto
          -156 -154 -74 -181 -68 hvcurveto
          -77 -1 callsubr
          69 hlineto
          -5 -20 -6 -32 -2 -18 rrcurveto
          -69 -1 callsubr
          77 hlineto
          -185 5 133 -70 160 hhcurveto
          endchar
        </CharString>
        <CharString name="F">
          -72 18 hmoveto
          95 hlineto
          53 302 rlineto
          355 -69 callsubr
          -355 hlineto
          38 218 rlineto
          391 -69 callsubr
          -486 hlineto
          endchar
        </CharString>
        <CharString name="G">
          95 726 452 -101 callgsubr
          endchar
        </CharString>
        <CharString name="G_tilde.loclGUA">
          95 376 795 rmoveto
          -103 callsubr
          64 hlineto
          23 6 13 8 15 hhcurveto
          350 -343 -101 callgsubr
          endchar
        </CharString>
        <CharString name="Gbreve">
          95 437 -76 callsubr
          289 -299 -101 callgsubr
          endchar
        </CharString>
        <CharString name="Gcaron">
          95 478 733 rmoveto
          129 135 rlineto
          -94 hlineto
          -70 -79 -45 79 rlineto
          -86 hlineto
          82 -135 rlineto
          332 -281 -101 callgsubr
          endchar
        </CharString>
        <CharString name="Gcircumflex">
          95 450 812 rmoveto
          43 -79 rlineto
          86 hlineto
          -82 135 rlineto
          -84 hlineto
          -129 -135 rlineto
          94 hlineto
          348 -281 -101 callgsubr
          endchar
        </CharString>
        <CharString name="Gcommaaccent">
          95 726 452 -101 callgsubr
          -355 -601 rmoveto
          35 hlineto
          -52 -81 rlineto
          47 hlineto
          59 88 15 84 -68 callgsubr
          endchar
        </CharString>
        <CharString name="Gdotaccent">
          95 503 868 -8 callgsubr
          240 -321 -101 callgsubr
          endchar
        </CharString>
        <CharString name="H">
          -39 callgsubr
          endchar
        </CharString>
        <CharString name="Hbar">
          39 18 hmoveto
          95 hlineto
          55 309 0 callgsubr
          -55 -309 rlineto
          95 hlineto
          -58 callgsubr
          70 hlineto
          12 72 rlineto
          -70 hlineto
          16 88 -54 callgsubr
          -16 -88 rlineto
          -374 hlineto
          16 88 -54 callgsubr
          -16 -88 rlineto
          -70 hlineto
          -12 -72 rlineto
          70 hlineto
          71 -134 rmoveto
          24 134 0 callgsubr
          -24 -134 rlineto
          endchar
        </CharString>
        <CharString name="Hcircumflex">
          39 277 -77 callgsubr
          -388 -868 rmoveto
          -38 callsubr
          endchar
        </CharString>
        <CharString name="I">
          -405 31 hmoveto
          -60 callgsubr
          endchar
        </CharString>
        <CharString name="IJ">
          95 31 hmoveto
          -60 callgsubr
          299 -698 -82 callgsubr
        </CharString>
        <CharString name="Iacute">
          -405 165 736 -95 callgsubr
          -242 -868 -67 callgsubr
        </CharString>
        <CharString name="Iacute_J.loclNLD">
          95 165 736 -95 callgsubr
          406 -132 -95 callgsubr
          -756 -868 rmoveto
          -60 callgsubr
          299 -698 -82 callgsubr
        </CharString>
        <CharString name="Ibreve">
          -405 209 -76 callsubr
          -178 -751 -67 callgsubr
        </CharString>
        <CharString name="Icircumflex">
          -405 56 -77 callgsubr
          -154 -868 -67 callgsubr
        </CharString>
        <CharString name="Idieresis">
          -405 78 -71 callgsubr
          -251 -868 -67 callgsubr
        </CharString>
        <CharString name="Idotaccent">
          -405 171 -36 callsubr
          -157 -868 -67 callgsubr
        </CharString>
        <CharString name="Igrave">
          -405 171 736 -81 callsubr
          -55 -865 -67 callgsubr
        </CharString>
        <CharString name="Imacron">
          -405 63 772 -73 callsubr
          -45 -844 -67 callgsubr
        </CharString>
        <CharString name="Iogonek">
          -405 91 hmoveto
          35 -57 callgsubr
          -120 -682 rlineto
          -37 -27 -40 -35 -58 -56 callgsubr
          endchar
        </CharString>
        <CharString name="Itilde">
          -405 50 764 -74 callsubr
          -764 -67 callgsubr
        </CharString>
        <CharString name="J">
          -183 173 -12 -82 callgsubr
        </CharString>
        <CharString name="Jcircumflex">
          -183 292 -77 callgsubr
          -248 -880 -82 callgsubr
        </CharString>
        <CharString name="K">
          -43 callsubr
          endchar
        </CharString>
        <CharString name="Kcommaaccent">
          -43 callsubr
          63 -916 -76 callgsubr
        </CharString>
        <CharString name="L">
          18 hmoveto
          -58 callsubr
          endchar
        </CharString>
        <CharString name="Lacute">
          152 736 -95 callgsubr
          -242 -868 rmoveto
          -58 callsubr
          endchar
        </CharString>
        <CharString name="Lcaron">
          18 hmoveto
          -58 callsubr
          191 -196 rmoveto
          46 -49 callgsubr
          32 hlineto
          endchar
        </CharString>
        <CharString name="Lcommaaccent">
          18 hmoveto
          -58 callsubr
          25 -916 -76 callgsubr
        </CharString>
        <CharString name="Ldot">
          18 hmoveto
          -58 callsubr
          177 -268 -57 callsubr
          endchar
        </CharString>
        <CharString name="Lslash">
          35 hmoveto
          447 -69 callsubr
          -352 hlineto
          43 244 186 111 15 82 -187 -111 49 277 -54 callgsubr
          -60 -340 -82 -49 -14 -81 82 49 rlineto
          endchar
        </CharString>
        <CharString name="M">
          150 18 hmoveto
          89 hlineto
          80 453 rlineto
          5 28 15 100 0 vvcurveto
          6 hlineto
          0 2 -44 4 -22 vhcurveto
          93 -515 rlineto
          80 hlineto
          276 515 rlineto
          14 26 14 40 0 vvcurveto
          7 hlineto
          -24 -128 -80 -453 rlineto
          95 -28 callsubr
          -147 hlineto
          -248 -468 rlineto
          -19 -35 -25 -68 0 vvcurveto
          -4 hlineto
          0 -1 61 -8 42 vhcurveto
          -85 468 rlineto
          -139 hlineto
          endchar
        </CharString>
        <CharString name="N">
          39 -47 callsubr
          endchar
        </CharString>
        <CharString name="NULL">
          -683 endchar
        </CharString>
        <CharString name="Nacute">
          39 404 736 -95 callgsubr
          -494 -868 rmoveto
          -92 callgsubr
          endchar
        </CharString>
        <CharString name="Nacute.loclPLK">
          39 398 736 -62 callgsubr
          -426 -868 rmoveto
          -92 callgsubr
          endchar
        </CharString>
        <CharString name="Ncaron">
          39 405 733 -94 callgsubr
          -305 -868 rmoveto
          -92 callgsubr
          endchar
        </CharString>
        <CharString name="Ncommaaccent">
          39 -47 callsubr
          90 -916 -76 callgsubr
        </CharString>
        <CharString name="Ntilde">
          39 289 764 rmoveto
          64 hlineto
          23 6 13 8 15 -103 callsubr
          -271 -764 rmoveto
          -92 callgsubr
          endchar
        </CharString>
        <CharString name="O">
          95 334 -11 -107 callsubr
          endchar
        </CharString>
        <CharString name="OE">
          317 270 -12 rmoveto
          75 64 29 59 52 hvcurveto
          -13 -76 rlineto
          438 hlineto
          14 80 rlineto
          -343 hlineto
          41 231 rlineto
          281 hlineto
          14 80 rlineto
          -281 hlineto
          38 215 rlineto
          336 hlineto
          14 80 rlineto
          -431 hlineto
          -13 -76 rlineto
          58 -37 -60 30 -84 hhcurveto
          -167 -119 -117 -238 -40 hvcurveto
          -7 -42 -4 -38 -34 vvcurveto
          -162 84 -79 148 vhcurveto
          17 81 rmoveto
          -98 -53 46 119 31 4 36 7 42 hvcurveto
          196 34 76 78 118 hhcurveto
          90 55 -42 -123 -31 -4 -36 -7 -42 hvcurveto
          -201 -36 -79 -73 -107 hhcurveto
          endchar
        </CharString>
        <CharString name="Oacute">
          95 402 736 -95 callgsubr
          -176 -879 -107 callsubr
          endchar
        </CharString>
        <CharString name="Oacute.loclPLK">
          95 396 736 -62 callgsubr
          -108 -879 -107 callsubr
          endchar
        </CharString>
        <CharString name="Obreve">
          95 446 -76 callsubr
          -112 -762 -107 callsubr
          endchar
        </CharString>
        <CharString name="Ocircumflex">
          95 293 -77 callgsubr
          -88 -879 -107 callsubr
          endchar
        </CharString>
        <CharString name="Odieresis">
          95 315 -71 callgsubr
          -185 -879 -107 callsubr
          endchar
        </CharString>
        <CharString name="Ograve">
          95 408 736 -81 callsubr
          11 -876 -107 callsubr
          endchar
        </CharString>
        <CharString name="Ohorn">
          95 723 828 -99 callgsubr
          endchar
        </CharString>
        <CharString name="Ohungarumlaut">
          95 334 736 -63 callsubr
          -228 -879 -107 callsubr
          endchar
        </CharString>
        <CharString name="Omacron">
          95 300 772 -73 callsubr
          21 -855 -107 callsubr
          endchar
        </CharString>
        <CharString name="Oslash">
          95 8 -49 -73 callgsubr
        </CharString>
        <CharString name="Oslashacute">
          95 432 736 -95 callgsubr
          -532 -917 -73 callgsubr
        </CharString>
        <CharString name="Otilde">
          95 287 764 rmoveto
          64 hlineto
          23 6 13 8 15 -103 callsubr
          47 -775 -107 callsubr
          endchar
        </CharString>
        <CharString name="P">
          -16 18 hmoveto
          95 hlineto
          46 263 -15 callgsubr
          -324 hlineto
          35 -340 -17 callsubr
        </CharString>
        <CharString name="Q">
          95 486 -130 rmoveto
          121 hlineto
          -123 143 rlineto
          156 57 100 154 212 vvcurveto
          175 -109 87 -190 -99 -86 -30 -54 -66 vhcurveto
          -96 -78 -56 -127 -161 vvcurveto
          -174 109 -86 189 16 18 1 2 16 vhcurveto
          -56 78 rmoveto
          -121 -72 54 135 45 5 41 10 38 hvcurveto
          148 38 109 87 148 hhcurveto
          122 73 -54 -137 -50 -6 -45 -12 -40 hvcurveto
          -141 -42 -109 -81 -143 hhcurveto
          endchar
        </CharString>
        <CharString name="R">
          -51 callgsubr
          endchar
        </CharString>
        <CharString name="Racute">
          39 358 736 -95 callgsubr
          -448 -868 rmoveto
          -88 callsubr
          endchar
        </CharString>
        <CharString name="Rcaron">
          39 359 733 -94 callgsubr
          -259 -868 rmoveto
          -88 callsubr
          endchar
        </CharString>
        <CharString name="Rcommaaccent">
          -51 callgsubr
          -206 -596 -76 callgsubr
        </CharString>
        <CharString name="S">
          -64 callgsubr
          endchar
        </CharString>
        <CharString name="Sacute">
          -16 347 736 -95 callgsubr
          -166 -880 -97 callgsubr
          endchar
        </CharString>
        <CharString name="Sacute.loclPLK">
          -16 341 736 -62 callgsubr
          -98 -880 -97 callgsubr
          endchar
        </CharString>
        <CharString name="Scaron">
          -16 348 733 -94 callgsubr
          23 -880 -97 callgsubr
          endchar
        </CharString>
        <CharString name="Scedilla">
          -16 263 -10 callsubr
          -45 callgsubr
          9 25 rlineto
          144 6 135 63 151 221 -401 -67 148 vvcurveto
          73 86 33 106 88 61 -33 -60 -5 0 -11 -4 -15 vhcurveto
          93 hlineto
          4 20 1 17 12 vvcurveto
          110 -108 46 -144 -143 -139 -63 -135 vhcurveto
          -221 400 72 -156 vvcurveto
          -81 -85 -45 -130 -98 -67 33 69 15 5 18 3 10 vhcurveto
          -94 hlineto
          -5 -15 -3 -26 -18 vvcurveto
          -112 100 -47 133 -7 vhcurveto
          -24 -66 -72 callgsubr
          endchar
        </CharString>
        <CharString name="Scircumflex">
          -16 238 -77 callgsubr
          -78 -880 -97 callgsubr
          endchar
        </CharString>
        <CharString name="Scommaaccent">
          -64 callgsubr
          -87 -218 -76 callgsubr
        </CharString>
        <CharString name="T">
          -46 callgsubr
          endchar
        </CharString>
        <CharString name="Tbar">
          -72 197 hmoveto
          95 hlineto
          67 381 rlineto
          105 hlineto
          13 72 rlineto
          -105 hlineto
          26 150 -52 callsubr
          -26 -150 rlineto
          -105 hlineto
          -13 -72 rlineto
          105 hlineto
          endchar
        </CharString>
        <CharString name="Tcaron">
          -72 330 733 -94 callgsubr
          -51 -868 rmoveto
          -41 callsubr
          endchar
        </CharString>
        <CharString name="Thorn">
          -16 18 hmoveto
          95 hlineto
          25 144 -15 callgsubr
          -229 hlineto
          21 119 -54 callgsubr
          14 -459 -17 callsubr
        </CharString>
        <CharString name="U">
          39 318 -12 -105 callsubr
          endchar
        </CharString>
        <CharString name="Uacute">
          39 387 736 -95 callgsubr
          -177 -880 -105 callsubr
          endchar
        </CharString>
        <CharString name="Ubreve">
          39 431 -76 callsubr
          -113 -763 -105 callsubr
          endchar
        </CharString>
        <CharString name="Ucircumflex">
          39 278 -77 callgsubr
          -89 -880 -105 callsubr
          endchar
        </CharString>
        <CharString name="Udieresis">
          39 300 -71 callgsubr
          -186 -880 -105 callsubr
          endchar
        </CharString>
        <CharString name="Ugrave">
          39 393 736 -81 callsubr
          10 -877 -105 callsubr
          endchar
        </CharString>
        <CharString name="Uhorn">
          -90 callsubr
          endchar
        </CharString>
        <CharString name="Uhungarumlaut">
          39 319 736 -63 callsubr
          -229 -880 -105 callsubr
          endchar
        </CharString>
        <CharString name="Umacron">
          39 285 772 -73 callsubr
          20 -856 -105 callsubr
          endchar
        </CharString>
        <CharString name="Uogonek">
          39 330 -12 callsubr
          19 22 25 14 24 17 17 hvcurveto
          144 12 96 81 30 170 76 433 rcurveline
          -95 hlineto
          -77 -438 rlineto
          -118 -21 -79 -61 -117 hhcurveto
          -102 -58 47 91 15 2 16 3 18 hvcurveto
          75 430 -54 callgsubr
          -74 -425 rlineto
          -4 -22 -2 -21 -20 vvcurveto
          -129 82 -72 148 -8 vhcurveto
          -26 -24 -22 -30 -43 -24 callgsubr
          vhcurveto
          endchar
        </CharString>
        <CharString name="Uring">
          39 426 711 -69 callgsubr
          -114 -768 -105 callsubr
          endchar
        </CharString>
        <CharString name="Utilde">
          39 272 764 rmoveto
          64 hlineto
          23 6 13 8 15 -103 callsubr
          46 -776 -105 callsubr
          endchar
        </CharString>
        <CharString name="V">
          -16 210 hmoveto
          125 hlineto
          376 -49 callsubr
          -101 hlineto
          -275 -511 -14 -27 -15 -26 -14 -27 rlinecurve
          -5 hlineto
          -5 29 -6 28 -5 29 -95 505 rcurveline
          -100 hlineto
          endchar
        </CharString>
        <CharString name="W">
          261 148 hmoveto
          -91 callsubr
        </CharString>
        <CharString name="Wacute">
          261 497 736 -95 callgsubr
          -457 -868 rmoveto
          -91 callsubr
        </CharString>
        <CharString name="Wcircumflex">
          261 388 -77 callgsubr
          -369 -868 rmoveto
          -91 callsubr
        </CharString>
        <CharString name="Wdieresis">
          261 410 -71 callgsubr
          -466 -868 rmoveto
          -91 callsubr
        </CharString>
        <CharString name="Wgrave">
          261 503 736 -81 callsubr
          -270 -865 rmoveto
          -91 callsubr
        </CharString>
        <CharString name="X">
          -16 -55 hmoveto
          116 hlineto
          261 285 rlineto
          6 hlineto
          162 -285 rlineto
          111 hlineto
          -209 357 303 329 rlineto
          -117 hlineto
          -227 -253 rlineto
          -5 hlineto
          -146 253 rlineto
          -111 hlineto
          189 -324 rlineto
          endchar
        </CharString>
        <CharString name="Y">
          -16 226 hmoveto
          -82 callsubr
          endchar
        </CharString>
        <CharString name="Y.loclGUA">
          -16 272 -12 -98 callgsubr
        </CharString>
        <CharString name="Yacute">
          -16 357 736 -95 callgsubr
          -239 -868 rmoveto
          -82 callsubr
          endchar
        </CharString>
        <CharString name="Yacute.loclGUA">
          -16 377 736 -95 callgsubr
          -213 -880 -98 callgsubr
        </CharString>
        <CharString name="Ycircumflex">
          -16 248 -77 callgsubr
          -151 -868 rmoveto
          -82 callsubr
          endchar
        </CharString>
        <CharString name="Ycircumflex.loclGUA">
          -41 callgsubr
          -125 -880 -98 callgsubr
        </CharString>
        <CharString name="Ydieresis">
          -16 270 -71 callgsubr
          -248 -868 rmoveto
          -82 callsubr
          endchar
        </CharString>
        <CharString name="Ydieresis.loclGUA">
          -16 290 -71 callgsubr
          -222 -880 -98 callgsubr
        </CharString>
        <CharString name="Ygrave">
          -16 363 736 -81 callsubr
          -52 -865 rmoveto
          -82 callsubr
          endchar
        </CharString>
        <CharString name="Ygrave.loclGUA">
          -16 383 736 -81 callsubr
          -26 -877 -98 callgsubr
        </CharString>
        <CharString name="Z">
          -72 -37 hmoveto
          -80 callsubr
          endchar
        </CharString>
        <CharString name="Zacute">
          -72 349 736 -95 callgsubr
          -494 -868 rmoveto
          -80 callsubr
          endchar
        </CharString>
        <CharString name="Zacute.loclPLK">
          -72 343 736 -62 callgsubr
          -426 -868 rmoveto
          -80 callsubr
          endchar
        </CharString>
        <CharString name="Zcaron">
          -72 350 733 -94 callgsubr
          -305 -868 rmoveto
          -80 callsubr
          endchar
        </CharString>
        <CharString name="Zdotaccent">
          -72 355 -36 callsubr
          -409 -868 rmoveto
          -80 callsubr
          endchar
        </CharString>
        <CharString name="a">
          440 88 -106 callsubr
        </CharString>
        <CharString name="aacute">
          483 720 -62 callsubr
          81 -503 -106 callsubr
        </CharString>
        <CharString name="abreve">
          317 -83 callsubr
          123 -518 -106 callsubr
        </CharString>
        <CharString name="acircumflex">
          330 667 rmoveto
          43 -79 rlineto
          86 hlineto
          -82 135 rlineto
          -84 hlineto
          -129 -135 rlineto
          94 hlineto
          182 -500 -106 callsubr
        </CharString>
        <CharString name="acute">
          -350 63 591 -95 callgsubr
          endchar
        </CharString>
        <CharString name="acute.loclPLK">
          -350 164 591 -62 callgsubr
          endchar
        </CharString>
        <CharString name="adieresis">
          290 723 -8 callgsubr
          204 95 -8 callgsubr
          -20 -540 -106 callsubr
        </CharString>
        <CharString name="ae">
          206 166 -12 -75 callgsubr
        </CharString>
        <CharString name="aeacute">
          206 459 591 -95 callgsubr
          -401 -735 -75 callgsubr
        </CharString>
        <CharString name="agrave">
          354 591 -55 callgsubr
          161 -503 -106 callsubr
        </CharString>
        <CharString name="amacron">
          489 699 rmoveto
          -20 callgsubr
          -13 -72 rlineto
          305 hlineto
          -36 -539 -106 callsubr
        </CharString>
        <CharString name="ampersand">
          -16 248 -12 rmoveto
          166 98 73 133 24 hvcurveto
          21 117 rlineto
          85 hlineto
          13 74 rlineto
          -173 hlineto
          -34 -194 rlineto
          -85 -15 -65 -43 -114 hhcurveto
          -91 -59 32 77 112 99 28 85 hvcurveto
          59 -38 callgsubr
          -61 hlineto
          -69 -56 32 65 102 96 39 94 83 57 -30 -68 -8 0 -8 -3 -17 hvcurveto
          88 hlineto
          5 23 1 16 9 vvcurveto
          97 -92 61 -140 -155 -124 -78 -142 -61 35 -36 48 -25 vhcurveto
          -1 -4 rlineto
          -78 -21 -77 -67 -104 vvcurveto
          -108 94 -64 143 vhcurveto
          endchar
        </CharString>
        <CharString name="aogonek">
          435 88 rmoveto
          14 84 -30 callsubr
          vhcurveto
          -67 hlineto
          -31 -60 rlineto
          -6 hlineto
          51 -25 -45 21 -72 hhcurveto
          -142 -110 -140 -219 -129 65 -62 100 65 65 32 63 36 hvcurveto
          5 hlineto
          -1 -9 0 -7 -8 vvcurveto
          -34 13 -20 21 -9 vhcurveto
          -45 -24 -32 -31 -49 -24 callgsubr
          -34 callsubr
          vhcurveto
          -13 callsubr
          -36 -8 19 22 50 67 21 30 9 hvcurveto
          10 57 rlineto
          -40 hlineto
          -20 -10 8 19 hvcurveto
          -227 -27 rmoveto
          -66 -29 43 80 150 57 131 115 76 31 -44 -80 -78 -49 -202 -135 hvcurveto
          endchar
        </CharString>
        <CharString name="approxequal">
          -134 41 271 -37 callgsubr
          -54 -306 -37 callgsubr
          endchar
        </CharString>
        <CharString name="aring">
          312 566 rmoveto
          71 40 47 65 45 -35 35 -49 -71 -40 -48 -65 -45 35 -34 49 hvcurveto
          21 147 rmoveto
          28 16 -19 -23 -32 -21 -28 -38 -29 -15 18 23 32 21 29 38 hvcurveto
          107 -625 -106 callsubr
        </CharString>
        <CharString name="aringacute">
          512 910 -62 callsubr
          -76 -215 rmoveto
          71 40 47 65 45 -35 35 -49 -71 -40 -48 -65 -45 35 -34 49 hvcurveto
          21 147 rmoveto
          28 16 -19 -23 -32 -21 -28 -38 -29 -15 18 23 32 21 29 38 hvcurveto
          107 -625 -106 callsubr
        </CharString>
        <CharString name="arrowboth">
          317 208 79 rmoveto
          42 hlineto
          -29 137 rlineto
          550 hlineto
          -82 -137 rlineto
          -18 callsubr
          -550 hlineto
          77 137 rlineto
          -52 hlineto
          -216 -163 -3 -21 rlineto
          endchar
        </CharString>
        <CharString name="arrowdown">
          -183 154 -208 rmoveto
          21 hlineto
          196 189 9 50 -148 -58 130 737 rlineto
          -73 hlineto
          -130 -737 -126 58 -8 -42 rlineto
          endchar
        </CharString>
        <CharString name="arrowleft">
          317 201 79 rmoveto
          42 hlineto
          -34 137 rlineto
          737 -38 callgsubr
          -737 hlineto
          82 137 rlineto
          -50 hlineto
          -218 -163 -3 -21 rlineto
          endchar
        </CharString>
        <CharString name="arrowright">
          317 689 79 rmoveto
          -18 callsubr
          -737 hlineto
          -13 -73 rlineto
          737 hlineto
          endchar
        </CharString>
        <CharString name="arrowup">
          -183 123 -208 rmoveto
          73 hlineto
          130 737 126 -58 8 42 -129 197 rlineto
          -21 hlineto
          -196 -189 -9 -50 148 58 rlineto
          endchar
        </CharString>
        <CharString name="arrowupdn">
          -183 158 -206 -6 callgsubr
          97 550 -21 callgsubr
          -97 -550 -127 58 -8 -42 rlineto
          endchar
        </CharString>
        <CharString name="arrowupdnbse">
          -183 167 -136 -6 callgsubr
          85 480 -21 callgsubr
          -85 -480 -127 58 -8 -42 rlineto
          -52 -294 rmoveto
          349 hlineto
          9 48 rlineto
          -349 hlineto
          endchar
        </CharString>
        <CharString name="asciicircum">
          -214 23 294 rmoveto
          91 hlineto
          174 315 66 -315 -21 callsubr
          -88 392 rlineto
          -107 hlineto
          endchar
        </CharString>
        <CharString name="asciitilde">
          -99 25 211 rmoveto
          0 73 73 85 vhcurveto
          78 47 -61 76 hhcurveto
          97 61 73 0 hvcurveto
          16 93 rlineto
          0 -73 -73 -85 vhcurveto
          -78 -47 61 -76 hhcurveto
          -97 -61 -73 0 hvcurveto
          endchar
        </CharString>
        <CharString name="asterisk">
          -294 164 362 rmoveto
          83 hlineto
          4 119 83 -74 53 71 -103 46 120 47 -29 70 -109 -73 38 118 rlineto
          -83 hlineto
          -4 -119 -83 74 -53 -70 104 -47 -121 -46 29 -71 109 74 rlineto
          endchar
        </CharString>
        <CharString name="at">
          332 568 698 rmoveto
          -310 -205 -156 -350 -200 99 -145 303 80 58 9 5 33 hvcurveto
          11 62 rlineto
          0 -77 -18 -105 -258 -76 124 170 301 183 140 264 214 114 -100 -161 -147 -71 -144 -119 -25 -12 7 18 19 76 378 0 vhcurveto
          -65 hlineto
          -28 -54 rlineto
          -6 hlineto
          46 -22 -41 19 -65 hhcurveto
          -131 -102 -127 -199 -117 61 -56 93 59 59 29 57 32 hvcurveto
          5 hlineto
          -1 -7 0 -6 -5 vvcurveto
          -52 49 -16 43 202 76 198 159 197 -138 122 -257 vhcurveto
          -109 -608 rmoveto
          -60 -27 37 73 136 52 117 105 68 29 -38 -73 -71 -45 -181 -122 hvcurveto
          endchar
        </CharString>
        <CharString name="atilde">
          256 650 rmoveto
          -103 callsubr
          64 hlineto
          23 6 13 8 15 hhcurveto
          184 -562 -106 callsubr
        </CharString>
        <CharString name="b">
          267 -12 rmoveto
          149 102 144 215 132 -64 59 -102 -70 -52 -27 -45 -41 hvcurveto
          -6 hlineto
          0 callsubr
          -88 hlineto
          -127 -723 rlineto
          66 hlineto
          23 71 rlineto
          6 hlineto
          -55 28 58 -28 73 hhcurveto
          -19 73 rmoveto
          -76 -32 47 86 135 60 136 119 74 34 -33 -88 -155 -58 -128 -121 hvcurveto
          endchar
        </CharString>
        <CharString name="backslash">
          -405 136 -49 rmoveto
          71 hlineto
          -67 784 rlineto
          -70 hlineto
          endchar
        </CharString>
        <CharString name="bar">
          -423 91 -173 rmoveto
          78 896 -78 hlineto
          endchar
        </CharString>
        <CharString name="braceleft">
          -349 213 -159 rmoveto
          10 57 rlineto
          -37 -42 10 47 hvcurveto
          38 33 169 45 vvcurveto
          48 -19 28 -53 vhcurveto
          2 10 rlineto
          64 25 31 77 18 hvcurveto
          6 27 31 144 7 35 rrcurveto
          59 11 51 12 40 hhcurveto
          10 57 rlineto
          -99 -74 -22 -126 -22 hvcurveto
          -35 -197 rlineto
          -45 -8 -45 -15 -39 hhcurveto
          -15 -84 rlineto
          35 38 -11 -39 hvcurveto
          -38 -40 -159 -51 vvcurveto
          -90 68 -17 79 vhcurveto
          endchar
        </CharString>
        <CharString name="braceright">
          -349 -57 -159 rmoveto
          99 74 22 126 22 hvcurveto
          35 197 rlineto
          45 8 45 15 39 hhcurveto
          -10 callgsubr
          -35 -38 11 39 hvcurveto
          38 40 159 51 vvcurveto
          90 -68 17 -79 vhcurveto
          -10 -57 rlineto
          37 42 -10 -47 hvcurveto
          -38 -33 -169 -45 vvcurveto
          -48 19 -28 53 vhcurveto
          -2 -10 rlineto
          -64 -25 -31 -77 -18 hvcurveto
          -6 -27 -31 -144 -7 -35 rrcurveto
          -59 -11 -51 -12 -40 hhcurveto
          endchar
        </CharString>
        <CharString name="bracketleft">
          -405 -15 -161 rmoveto
          187 1 callgsubr
          -109 hlineto
          135 766 rlineto
          109 1 callgsubr
          -188 hlineto
          endchar
        </CharString>
        <CharString name="bracketright">
          -405 -75 -161 rmoveto
          187 hlineto
          157 896 rlineto
          -188 -1 callsubr
          109 hlineto
          -135 -766 rlineto
          -108 hlineto
          endchar
        </CharString>
        <CharString name="breve">
          -350 163 -83 callsubr
          endchar
        </CharString>
        <CharString name="brokenbar">
          -423 91 357 rmoveto
          78 366 -78 hlineto
          -896 vmoveto
          78 366 -78 hlineto
          endchar
        </CharString>
        <CharString name="bullet">
          -333 157 220 rmoveto
          91 52 67 77 58 -45 45 -63 -91 -52 -68 -77 -58 45 -44 63 hvcurveto
          endchar
        </CharString>
        <CharString name="c">
          -183 224 -12 -91 callgsubr
        </CharString>
        <CharString name="cacute">
          -183 264 591 -95 callgsubr
          -148 -735 -91 callgsubr
        </CharString>
        <CharString name="cacute.loclPLK">
          -183 258 591 -62 callgsubr
          -80 -735 -91 callgsubr
        </CharString>
        <CharString name="caron">
          -350 112 588 -94 callgsubr
          endchar
        </CharString>
        <CharString name="ccaron">
          -183 265 588 -94 callgsubr
          41 -735 -91 callgsubr
        </CharString>
        <CharString name="ccedilla">
          -183 474 331 rmoveto
          1 12 1 13 12 vvcurveto
          98 -50 72 -143 -193 -69 -179 -166 -119 45 -66 102 -16 vhcurveto
          -25 -69 -35 callgsubr
          24 136 2 68 94 18 111 rlinecurve
          -85 hlineto
          -67 -13 -43 -67 -89 hhcurveto
          -70 -38 37 100 27 2 30 5 29 hvcurveto
          91 16 45 90 105 hhcurveto
          81 18 -48 -57 -10 0 -9 -1 -10 hvcurveto
          endchar
        </CharString>
        <CharString name="ccircumflex">
          -183 155 -77 callsubr
          -60 -735 -91 callgsubr
        </CharString>
        <CharString name="cdotaccent">
          -183 270 -44 callgsubr
          -63 -735 -91 callgsubr
        </CharString>
        <CharString name="cedilla">
          -350 139 -10 callsubr
          -45 callgsubr
          17 47 rlineto
          -62 hlineto
          -32 -88 -72 callgsubr
          endchar
        </CharString>
        <CharString name="cent">
          194 -49 rmoveto
          51 hlineto
          20 115 136 2 69 94 18 111 rlinecurve
          -85 hlineto
          -12 -62 -37 -62 -76 -9 71 401 rcurveline
          59 -10 14 -43 -50 vvcurveto
          -10 0 -9 -1 -10 vhcurveto
          90 hlineto
          1 12 1 13 12 vvcurveto
          87 -40 67 -111 13 vhcurveto
          20 110 rlineto
          -51 hlineto
          -19 -108 rlineto
          -187 -5 -67 -176 -163 vvcurveto
          -123 48 -66 109 -14 vhcurveto
          13 73 rmoveto
          -51 10 -27 40 85 vvcurveto
          24 2 25 3 26 vhcurveto
          13 88 39 89 92 13 rrcurveto
          endchar
        </CharString>
        <CharString name="circumflex">
          -350 7 -77 callsubr
          endchar
        </CharString>
        <CharString name="colon">
          -405 110 418 -57 callsubr
          -93 -526 -57 callsubr
          endchar
        </CharString>
        <CharString name="comma">
          -405 12 -134 -53 callsubr
          endchar
        </CharString>
        <CharString name="copyright">
          -56 callsubr
          99 vmoveto
          114 44 74 84 hvcurveto
          -64 hlineto
          -67 -26 -36 -68 -76 -32 44 110 111 34 43 74 70 20 -32 -70 vhcurveto
          68 hlineto
          102 -46 56 -112 -121 -56 -66 -144 -144 55 -65 122 vhcurveto
          endchar
        </CharString>
        <CharString name="currency">
          74 99 rmoveto
          55 58 rlineto
          -37 40 55 -18 54 hhcurveto
          54 55 18 37 40 hvcurveto
          55 -58 45 45 -54 56 rlineto
          34 42 16 54 55 vvcurveto
          55 -16 56 -34 39 vhcurveto
          55 54 -48 48 -57 -56 rlineto
          33 -38 -54 18 -53 hhcurveto
          -53 -54 -18 -33 -38 hvcurveto
          -57 56 -48 -48 55 -54 rlineto
          -34 -39 -16 -56 -55 vvcurveto
          -55 16 -54 34 -42 vhcurveto
          -54 -56 rlineto
          249 37 rmoveto
          -91 -72 79 91 89 73 79 90 90 73 -79 -89 -91 -72 -79 -91 hvcurveto
          endchar
        </CharString>
        <CharString name="d">
          -78 callgsubr
          25 73 -29 callsubr
        </CharString>
        <CharString name="dagger">
          148 -170 rmoveto
          94 hlineto
          89 601 -27 callsubr
          rlineto
          endchar
        </CharString>
        <CharString name="daggerdbl">
          150 -170 rmoveto
          88 hlineto
          21 197 200 -17 17 93 -206 -18 47 175 13 171 -27 callsubr
          -47 -171 -13 -175 -199 18 -15 -93 203 17 rlineto
          endchar
        </CharString>
        <CharString name="dcaron">
          -58 -78 callgsubr
          383 502 rmoveto
          46 -49 callgsubr
          32 hlineto
          -411 -534 -29 callsubr
        </CharString>
        <CharString name="dcroat">
          199 -12 rmoveto
          64 59 28 55 42 hvcurveto
          6 -71 65 hlineto
          104 596 rlineto
          70 hlineto
          11 62 rlineto
          -70 hlineto
          12 65 -68 callgsubr
          -12 -65 rlineto
          -136 hlineto
          -11 -62 rlineto
          137 hlineto
          -23 -130 rlineto
          -6 hlineto
          46 -27 -47 26 -76 hhcurveto
          -142 -110 -133 -209 -146 68 -62 110 hvcurveto
          25 73 -29 callsubr
        </CharString>
        <CharString name="degree">
          -283 225 428 rmoveto
          75 60 60 75 75 -60 60 -75 -75 -60 -60 -75 -75 60 -60 75 hvcurveto
          53 vmoveto
          -45 -37 37 45 45 37 36 45 45 36 -36 -45 -45 -36 -37 -45 hvcurveto
          endchar
        </CharString>
        <CharString name="dieresis">
          -350 21 -63 callgsubr
          endchar
        </CharString>
        <CharString name="divide">
          -134 251 411 rmoveto
          100 hlineto
          18 100 rlineto
          -100 hlineto
          -239 -297 rmoveto
          473 -69 callsubr
          -473 hlineto
          133 -297 rmoveto
          100 hlineto
          18 100 rlineto
          -100 hlineto
          endchar
        </CharString>
        <CharString name="dollar">
          186 -49 rmoveto
          51 hlineto
          20 116 rlineto
          114 2 103 56 125 vvcurveto
          90 -83 27 -77 21 vhcurveto
          28 154 rlineto
          54 -6 18 -28 -31 vvcurveto
          -6 -1 -11 -2 -6 vhcurveto
          86 -11 callsubr
          21 14 vvcurveto
          60 -50 49 -99 11 vhcurveto
          -32 callsubr
          -51 hlineto
          -19 -106 rlineto
          -119 -4 -89 -65 -101 vvcurveto
          -84 80 -25 75 -22 vhcurveto
          -32 -176 rlineto
          -53 5 -38 23 48 vvcurveto
          4 1 13 3 10 vhcurveto
          -87 hlineto
          -4 -13 -3 -20 -13 vvcurveto
          -63 48 -55 121 -10 vhcurveto
          59 333 rmoveto
          -44 13 -32 17 35 vvcurveto
          24 17 44 84 8 vhcurveto
          -21 -403 rmoveto
          29 162 rlineto
          45 -16 35 -20 -40 vvcurveto
          -49 -48 -30 -61 -7 vhcurveto
          endchar
        </CharString>
        <CharString name="dotaccent">
          -350 114 -44 callgsubr
          endchar
        </CharString>
        <CharString name="dotbelowcomb">
          -683 -295 -173 -99 callsubr
          endchar
        </CharString>
        <CharString name="dotlessi">
          -405 35 hmoveto
          -65 callsubr
          endchar
        </CharString>
        <CharString name="e">
          253 -12 -105 callgsubr
          endchar
        </CharString>
        <CharString name="eacute">
          272 591 -95 callgsubr
          -127 -735 -105 callgsubr
          endchar
        </CharString>
        <CharString name="ebreve">
          316 -83 callsubr
          -63 -618 -105 callgsubr
          endchar
        </CharString>
        <CharString name="ecaron">
          273 588 -94 callgsubr
          62 -735 -105 callgsubr
          endchar
        </CharString>
        <CharString name="ecircumflex">
          163 -77 callsubr
          -39 -735 -105 callgsubr
          endchar
        </CharString>
        <CharString name="edieresis">
          185 -63 callgsubr
          -136 -735 -105 callgsubr
          endchar
        </CharString>
        <CharString name="edotaccent">
          278 -44 callgsubr
          -42 -735 -105 callgsubr
          endchar
        </CharString>
        <CharString name="egrave">
          278 591 -81 callsubr
          60 -732 -105 callgsubr
          endchar
        </CharString>
        <CharString name="eight">
          229 -12 rmoveto
          179 89 107 123 60 -26 46 -62 28 hvcurveto
          82 37 43 70 77 vvcurveto
          92 -65 70 -135 -151 -97 -102 -117 -53 23 -46 48 -28 vhcurveto
          -98 -35 -47 -75 -89 vvcurveto
          -94 61 -71 156 vhcurveto
          60 399 rmoveto
          -72 -42 35 59 89 67 55 89 72 42 -35 -59 -94 -75 -50 -81 hvcurveto
          -57 -326 rmoveto
          -85 -44 38 61 94 68 60 105 86 43 -37 -62 -109 -87 -45 -86 hvcurveto
          endchar
        </CharString>
        <CharString name="ellipsis">
          317 85 hmoveto
          -9 callsubr
          313 -108 rmoveto
          -9 callsubr
          312 -108 rmoveto
          -9 callsubr
          endchar
        </CharString>
        <CharString name="emacron">
          170 627 -73 callsubr
          70 -711 -105 callgsubr
          endchar
        </CharString>
        <CharString name="emdash">
          -14 callgsubr
        </CharString>
        <CharString name="endash">
          -6 233 rmoveto
          555 hlineto
          13 75 rlineto
          -556 hlineto
          endchar
        </CharString>
        <CharString name="eng">
          297 -25 callsubr
          72 410 -72 callsubr
          -64 -68 -34 -49 -40 vhcurveto
          -26 callgsubr
          -93 -526 -21 callsubr
          53 301 rlineto
          103 18 85 61 80 hhcurveto
          45 33 -15 -54 -14 -2 -12 callgsubr
          hvcurveto
          -71 -408 -7 callgsubr
          -31 hhcurveto
          -44 hlineto
          -10 -57 rlineto
          -6 16 27 -6 24 hhcurveto
          endchar
        </CharString>
        <CharString name="eogonek">
          360 -12 callsubr
          24 27 43 30 44 21 18 hvcurveto
          43 37 24 41 10 62 rrcurveto
          -86 hlineto
          -85 -14 -64 -33 -70 hhcurveto
          -95 -45 45 95 12 0 12 3 14 hvcurveto
          5 callgsubr
          8 44 rlineto
          5 27 3 24 23 vvcurveto
          119 -74 62 -132 -200 -84 -155 -187 -142 77 -66 155 16 16 2 2 15 vhcurveto
          -16 -24 -12 -29 -37 vvcurveto
          -64 46 -20 42 vhcurveto
          -233 494 -17 callgsubr
        </CharString>
        <CharString name="equal">
          -99 67 318 rmoveto
          473 -11 callgsubr
          -473 hlineto
          -53 -296 rmoveto
          473 -69 callsubr
          -473 hlineto
          endchar
        </CharString>
        <CharString name="equivalence">
          -100 75 432 rmoveto
          472 hlineto
          14 84 rlineto
          -472 hlineto
          -52 -297 rmoveto
          472 -11 callgsubr
          -472 hlineto
          -52 -296 rmoveto
          472 -43 callgsubr
          -472 hlineto
          endchar
        </CharString>
        <CharString name="estimated">
          -83 302 -12 rmoveto
          104 78 50 80 42 hvcurveto
          -34 21 rlineto
          -67 -34 -68 -42 -88 hhcurveto
          -62 -50 19 34 -37 hvcurveto
          165 406 5 vlineto
          165 -98 120 -159 -160 -97 -116 -159 -159 97 -116 160 vhcurveto
          -149 302 rmoveto
          152 vlineto
          34 37 50 20 62 hhcurveto
          61 50 -20 -35 38 hvcurveto
          -151 vlineto
          endchar
        </CharString>
        <CharString name="eth">
          240 -12 rmoveto
          205 71 178 173 106 -39 96 -60 78 hvcurveto
          94 6 11 60 -154 -10 -15 17 -16 15 -18 16 rlinecurve
          -98 hlineto
          -2 -4 20 -18 21 -16 18 -17 rlinecurve
          -101 -8 -10 -60 154 12 21 -28 19 -27 15 -29 rlinecurve
          -2 -2 rlineto
          8 -23 -26 4 -28 hhcurveto
          -87 -62 -32 -50 -44 hvcurveto
          -59 -68 -24 -102 -101 vvcurveto
          -134 75 -63 144 vhcurveto
          3 73 rmoveto
          -88 -42 39 93 30 2 31 6 30 hvcurveto
          96 18 50 85 105 hhcurveto
          88 42 -40 -94 -32 -3 -34 -6 -32 hvcurveto
          -93 -19 -51 -79 -102 hhcurveto
          endchar
        </CharString>
        <CharString name="exclam">
          -405 78 171 -18 callgsubr
          -114 -686 -57 callsubr
          endchar
        </CharString>
        <CharString name="exclamdbl">
          -183 78 171 -18 callgsubr
          185 -515 -18 callgsubr
          -364 -686 -57 callsubr
          231 -108 -57 callsubr
          endchar
        </CharString>
        <CharString name="exclamdown">
          -350 171 418 -57 callsubr
          -128 -686 rmoveto
          114 hlineto
          65 515 rlineto
          -62 hlineto
          endchar
        </CharString>
        <CharString name="f">
          -405 -28 -10 callsubr
          98 26 61 60 10 hvcurveto
          91 514 rlineto
          101 -38 callgsubr
          -101 hlineto
          15 84 -80 callgsubr
          endchar
        </CharString>
        <CharString name="f_f">
          560 658 1 callsubr
          11 61 rlineto
          7 -17 -29 5 -27 hhcurveto
          -98 -27 -61 -60 -10 hvcurveto
          -15 -84 rlineto
          -190 hlineto
          15 84 -80 callgsubr
          98 26 61 60 10 hvcurveto
          91 514 rlineto
          190 hlineto
          -80 -453 -21 callsubr
          80 453 rlineto
          101 -38 callgsubr
          -101 -11 callgsubr
          31 5 19 17 33 hhcurveto
          endchar
        </CharString>
        <CharString name="fi">
          -183 -28 -10 callsubr
          98 26 61 60 10 hvcurveto
          91 514 rlineto
          101 -38 callgsubr
          -101 hlineto
          15 84 -80 callgsubr
          429 807 -51 callsubr
          -127 -50 callsubr
        </CharString>
        <CharString name="five">
          228 -12 rmoveto
          151 124 101 178 122 -75 57 -103 -76 -54 -24 -28 -36 hvcurveto
          54 208 rlineto
          315 -11 callgsubr
          -390 hlineto
          -95 -380 79 -13 rlineto
          47 38 62 32 67 hhcurveto
          66 40 -40 -73 -146 -95 -53 -92 -70 -48 45 75 10 1 11 2 12 hvcurveto
          -90 hlineto
          -3 -17 -1 -16 -15 vvcurveto
          -111 80 -66 134 vhcurveto
          endchar
        </CharString>
        <CharString name="fiveeighths">
          151 55 -60 callsubr
          -547 -376 rmoveto
          80 63 54 92 67 -42 32 -57 -28 -22 -7 -9 -17 hvcurveto
          20 79 rlineto
          158 hlineto
          10 56 rlineto
          -211 hlineto
          -48 -186 53 -9 rlineto
          14 22 20 6 26 hhcurveto
          30 21 -14 -34 -58 -41 -28 -40 -31 -20 19 32 4 0 5 1 5 hvcurveto
          -63 hlineto
          -2 -9 0 -8 -8 vvcurveto
          -60 44 -35 74 vhcurveto
          436 -334 -83 callgsubr
        </CharString>
        <CharString name="fl">
          -183 -28 -10 callsubr
          98 26 61 60 10 hvcurveto
          91 514 rlineto
          101 -38 callgsubr
          -101 hlineto
          15 84 -80 callgsubr
          319 182 rmoveto
          88 -55 callsubr
          endchar
        </CharString>
        <CharString name="florin">
          47 -183 rmoveto
          101 31 61 60 18 hvcurveto
          140 464 rlineto
          101 hlineto
          21 73 rlineto
          -101 hlineto
          41 135 rlineto
          31 10 20 17 33 hhcurveto
          52 hlineto
          18 61 rlineto
          7 -15 -29 5 -27 hhcurveto
          -101 -31 -61 -60 -18 hvcurveto
          -41 -135 rlineto
          -77 hlineto
          -21 -73 rlineto
          77 hlineto
          -140 -464 rlineto
          -31 -10 -20 -17 -33 hhcurveto
          -52 hlineto
          -18 -61 rlineto
          -7 15 29 -5 27 hhcurveto
          endchar
        </CharString>
        <CharString name="four">
          290 hmoveto
          88 hlineto
          30 169 rlineto
          91 -38 callgsubr
          -91 hlineto
          62 354 rlineto
          -47 hlineto
          -23 -52 -16 -33 -25 -44 -39 -225 rcurveline
          -233 hlineto
          50 55 152 217 74 184 rrcurveto
          -98 hlineto
          -68 -168 -88 -145 -108 -142 -12 -74 rcurveline
          318 hlineto
          endchar
        </CharString>
        <CharString name="fraction">
          -516 -295 -60 callsubr
          endchar
        </CharString>
        <CharString name="franc">
          18 hmoveto
          90 hlineto
          55 312 rlineto
          131 hlineto
          -55 -312 -21 callsubr
          44 249 rlineto
          99 17 64 35 62 hhcurveto
          37 hlineto
          15 85 rlineto
          0 -18 8 -28 -66 -40 -47 -44 -24 vhcurveto
          -6 hlineto
          4 79 rlineto
          -67 hlineto
          -14 -79 rlineto
          -131 hlineto
          40 -22 callgsubr
          258 hlineto
          13 75 rlineto
          -348 hlineto
          endchar
        </CharString>
        <CharString name="g">
          190 -182 -102 callsubr
        </CharString>
        <CharString name="g_tilde.loclGUA">
          153 619 rmoveto
          64 hlineto
          23 6 13 8 15 -103 callsubr
          37 -801 -102 callsubr
        </CharString>
        <CharString name="gbreve">
          312 -83 callsubr
          -122 -788 -102 callsubr
        </CharString>
        <CharString name="gcaron">
          269 588 -94 callgsubr
          3 -905 -102 callsubr
        </CharString>
        <CharString name="gcircumflex">
          159 -77 callsubr
          -98 -905 -102 callsubr
        </CharString>
        <CharString name="gcommaaccent">
          266 608 rmoveto
          88 hlineto
          16 91 rlineto
          -35 hlineto
          52 81 rlineto
          -47 hlineto
          -59 -88 rlineto
          -91 -874 -102 callsubr
        </CharString>
        <CharString name="gdotaccent">
          274 -44 callgsubr
          -101 -905 -102 callsubr
        </CharString>
        <CharString name="germandbls">
          -72 6 hmoveto
          88 hlineto
          91 518 rlineto
          95 17 71 49 102 hhcurveto
          85 44 -41 -63 -71 -76 -64 -82 hvcurveto
          -94 hlineto
          -13 -73 rlineto
          104 hlineto
          76 53 -49 -73 -83 -84 -71 -83 hvcurveto
          -114 hlineto
          -13 -74 rlineto
          134 hlineto
          118 131 94 139 79 -45 56 -70 23 hvcurveto
          4 vlineto
          90 26 59 77 75 vvcurveto
          102 -88 60 -128 -70 -66 -17 -37 -51 vhcurveto
          -48 -35 -35 -54 -13 -76 rrcurveto
          endchar
        </CharString>
        <CharString name="grave">
          -350 171 591 -81 callsubr
          endchar
        </CharString>
        <CharString name="greater">
          -99 10 4 -23 callgsubr
          endchar
        </CharString>
        <CharString name="greaterequal">
          -134 4 124 -23 callgsubr
          -38 -217 -32 callgsubr
        </CharString>
        <CharString name="guillemotleft">
          176 126 -36 callgsubr
          332 -200 -36 callgsubr
          endchar
        </CharString>
        <CharString name="guillemotright">
          19 126 -37 callsubr
          30 -200 -37 callsubr
          endchar
        </CharString>
        <CharString name="guilsinglleft">
          -350 176 126 -36 callgsubr
          endchar
        </CharString>
        <CharString name="guilsinglright">
          -350 19 126 -37 callsubr
          endchar
        </CharString>
        <CharString name="h">
          13 hmoveto
          -74 callgsubr
          45 256 -68 callgsubr
          endchar
        </CharString>
        <CharString name="hbar">
          13 hmoveto
          -74 callgsubr
          22 129 rlineto
          140 hlineto
          11 62 rlineto
          -140 hlineto
          12 65 -68 callgsubr
          -12 -65 rlineto
          -66 hlineto
          -11 -62 rlineto
          66 hlineto
          endchar
        </CharString>
        <CharString name="hcircumflex">
          36 748 -102 callgsubr
          -152 -883 rmoveto
          -74 callgsubr
          45 256 -68 callgsubr
          endchar
        </CharString>
        <CharString name="hookabovecomb">
          -683 -142 591 rmoveto
          -101 callsubr
          -48 callgsubr
          hvcurveto
          -13 hlineto
          endchar
        </CharString>
        <CharString name="house">
          -79 77 hmoveto
          450 310 hlineto
          -225 253 -225 -253 rlineto
          39 -270 rmoveto
          253 vlineto
          186 208 186 -208 rlineto
          -253 vlineto
          endchar
        </CharString>
        <CharString name="hungarumlaut">
          -350 15 591 -63 callsubr
          endchar
        </CharString>
        <CharString name="hyphen">
          -14 callsubr
        </CharString>
        <CharString name="i">
          -30 callgsubr
          endchar
        </CharString>
        <CharString name="i.loclTRK">
          -405 146 -44 callgsubr
          -128 -50 callsubr
        </CharString>
        <CharString name="iacute">
          -405 131 591 rmoveto
          79 hlineto
          131 129 -1 3 rlineto
          -100 hlineto
          -205 -50 callsubr
        </CharString>
        <CharString name="iacute_j.loclNLD">
          -183 140 591 -95 callgsubr
          148 -132 -95 callgsubr
          -469 -19 callsubr
          110 -708 -84 callgsubr
        </CharString>
        <CharString name="ibreve">
          -405 184 -83 callsubr
          -149 -606 -66 callsubr
        </CharString>
        <CharString name="icircumflex">
          -405 27 -77 callsubr
          -121 -50 callsubr
        </CharString>
        <CharString name="idieresis">
          -405 46 -63 callgsubr
          -215 -50 callsubr
        </CharString>
        <CharString name="igrave">
          -405 146 591 -81 callsubr
          -26 -720 -66 callsubr
        </CharString>
        <CharString name="ij">
          -239 -23 callsubr
          205 -98 -51 callsubr
          -349 -19 callsubr
          76 -708 -84 callgsubr
        </CharString>
        <CharString name="imacron">
          -405 31 639 -73 callsubr
          -9 -711 -66 callsubr
        </CharString>
        <CharString name="infinity">
          30 166 142 rmoveto
          70 57 45 51 52 hvcurveto
          -51 35 44 -45 76 hhcurveto
          97 70 86 99 71 -44 55 -79 -70 -57 -46 -51 -51 hvcurveto
          51 -36 -44 46 -74 hhcurveto
          -96 -73 -87 -98 -72 43 -54 80 hvcurveto
          13 72 rmoveto
          -35 -26 28 37 52 47 46 44 44 28 -36 -44 27 hvcurveto
          -46 -44 -40 -37 -45 hhcurveto
          324 hmoveto
          -45 -29 37 46 -28 hvcurveto
          44 44 41 36 45 hhcurveto
          35 25 -29 -37 -52 -44 -45 -44 hvcurveto
          endchar
        </CharString>
        <CharString name="integral">
          -409 -55 -141 rmoveto
          109 50 17 95 17 hvcurveto
          27 153 83 629 0 vvcurveto
          43 8 40 14 49 hhcurveto
          4 callgsubr
          -109 -53 -18 -94 -16 hvcurveto
          -27 -154 -84 -626 0 vvcurveto
          -44 -7 -39 -14 -48 hhcurveto
          endchar
        </CharString>
        <CharString name="integralbt">
          -79 89 -250 rmoveto
          103 57 18 94 17 hvcurveto
          14 80 78 477 70 440 rrcurveto
          -74 hlineto
          -160 -1003 rlineto
          -43 -7 -41 -14 -49 hhcurveto
          endchar
        </CharString>
        <CharString name="integraltp">
          -79 175 -250 rmoveto
          74 hlineto
          160 1003 rlineto
          43 7 41 14 49 hhcurveto
          8 49 rlineto
          -103 -57 -18 -94 -17 hvcurveto
          -14 -80 -78 -477 -70 -440 rrcurveto
          endchar
        </CharString>
        <CharString name="intersection">
          36 47 hmoveto
          73 hlineto
          72 411 rlineto
          106 19 104 87 109 hhcurveto
          90 66 -69 -91 -11 -1 -11 -2 -11 hvcurveto
          -72 -411 rlineto
          73 hlineto
          72 410 rlineto
          3 16 1 15 16 vvcurveto
          124 -96 95 -137 -142 -134 -119 -147 -26 vhcurveto
          endchar
        </CharString>
        <CharString name="iogonek">
          -405 163 723 rmoveto
          -17 -95 rlineto
          87 hlineto
          17 95 rlineto
          -149 -723 rmoveto
          22 -61 callsubr
          -93 -2 callgsubr
          2 hlineto
          -36 -26 -36 -35 -55 -56 callgsubr
          endchar
        </CharString>
        <CharString name="itilde">
          -405 17 619 rmoveto
          64 hlineto
          23 6 13 8 15 -103 callsubr
          18 -619 -66 callsubr
        </CharString>
        <CharString name="j">
          -9 callgsubr
          -180 -905 -84 callgsubr
        </CharString>
        <CharString name="jcircumflex">
          -461 5 -77 callsubr
          -174 -905 -84 callgsubr
        </CharString>
        <CharString name="k">
          -53 callgsubr
          79 450 -68 callgsubr
          endchar
        </CharString>
        <CharString name="kcommaaccent">
          -53 callgsubr
          79 450 -68 callgsubr
          -2 -953 -76 callgsubr
        </CharString>
        <CharString name="kgreenlandic">
          -53 callgsubr
          44 253 -68 callgsubr
          endchar
        </CharString>
        <CharString name="l">
          -461 -31 callgsubr
          endchar
        </CharString>
        <CharString name="lacute">
          -461 149 751 -95 callgsubr
          -244 -883 rmoveto
          88 -55 callsubr
          endchar
        </CharString>
        <CharString name="lcaron">
          -391 -31 callgsubr
          105 -233 rmoveto
          46 -49 callgsubr
          32 hlineto
          endchar
        </CharString>
        <CharString name="lcommaaccent">
          -461 -31 callgsubr
          -169 -953 -76 callgsubr
        </CharString>
        <CharString name="ldot">
          -400 -31 callgsubr
          66 -420 -57 callsubr
          endchar
        </CharString>
        <CharString name="less">
          -99 484 4 -19 callgsubr
          endchar
        </CharString>
        <CharString name="lessequal">
          -134 477 124 -19 callgsubr
          -55 -320 -32 callgsubr
        </CharString>
        <CharString name="lira">
          -4 callgsubr
          33 124 rlineto
          167 hlineto
          12 72 rlineto
          -166 hlineto
          14 76 rlineto
          166 hlineto
          13 72 rlineto
          -166 hlineto
          17 92 -40 callgsubr
          -14 -76 rlineto
          -84 hlineto
          -13 -72 rlineto
          85 hlineto
          -14 -76 -7 callsubr
          -11 -72 rlineto
          84 hlineto
          -22 -124 rlineto
          -75 hlineto
          endchar
        </CharString>
        <CharString name="logicalnot">
          -99 422 197 rmoveto
          84 hlineto
          45 256 rlineto
          -473 hlineto
          -16 -93 rlineto
          389 hlineto
          endchar
        </CharString>
        <CharString name="longs">
          -405 -28 -10 callsubr
          98 25 61 60 11 hvcurveto
          119 671 -80 callgsubr
          endchar
        </CharString>
        <CharString name="lozenge">
          -83 163 -132 rmoveto
          107 hlineto
          254 430 -102 429 rlineto
          -107 hlineto
          -255 -429 rlineto
          166 -358 rmoveto
          -78 351 210 364 78 -350 rlineto
          endchar
        </CharString>
        <CharString name="lslash">
          -461 17 hmoveto
          88 hlineto
          63 356 75 55 14 77 -76 -55 51 290 -68 callgsubr
          -64 -363 -76 -56 -13 -77 76 56 rlineto
          endchar
        </CharString>
        <CharString name="m">
          150 13 hmoveto
          88 hlineto
          53 303 rlineto
          102 18 75 60 71 hhcurveto
          40 29 -15 -55 -9 -1 -11 -2 -12 hvcurveto
          -64 -363 -21 callsubr
          53 303 rlineto
          102 18 72 60 72 hhcurveto
          40 32 -15 -56 -9 -2 -10 -2 -12 hvcurveto
          -64 -363 -21 callsubr
          67 379 rlineto
          3 16 1 15 14 vvcurveto
          83 -55 31 -84 -61 -64 -28 -55 -45 vhcurveto
          -6 hlineto
          59 -14 -49 24 -66 hhcurveto
          -63 -57 -26 -57 -45 hvcurveto
          -26 callgsubr
          endchar
        </CharString>
        <CharString name="macron">
          -350 6 627 -73 callsubr
          endchar
        </CharString>
        <CharString name="minus">
          -99 48 214 -32 callgsubr
        </CharString>
        <CharString name="minute">
          -496 76 515 -16 callsubr
          endchar
        </CharString>
        <CharString name="multiply">
          -99 103 43 rmoveto
          181 153 124 -150 64 56 -125 149 182 154 -51 64 -182 -154 -122 149 -64 -56 123 -149 -181 -152 rlineto
          endchar
        </CharString>
        <CharString name="n">
          13 hmoveto
          -87 callsubr
        </CharString>
        <CharString name="nacute">
          292 591 -95 callgsubr
          -387 -723 rmoveto
          -87 callsubr
        </CharString>
        <CharString name="nacute.loclPLK">
          286 591 -62 callgsubr
          -319 -723 rmoveto
          -87 callsubr
        </CharString>
        <CharString name="napostrophe">
          -79 30 490 rmoveto
          45 -49 callgsubr
          32 hlineto
          -21 -595 rmoveto
          -87 callsubr
        </CharString>
        <CharString name="ncaron">
          293 588 -94 callgsubr
          -198 -723 rmoveto
          -87 callsubr
        </CharString>
        <CharString name="ncommaaccent">
          13 hmoveto
          -75 callsubr
          40 -756 -76 callgsubr
        </CharString>
        <CharString name="nine">
          225 -12 rmoveto
          157 101 95 280 47 hvcurveto
          8 47 4 41 35 vvcurveto
          158 -81 54 -134 -140 -123 -107 -164 -106 60 -76 133 66 64 26 45 45 vhcurveto
          -157 -31 -50 -98 -123 hhcurveto
          -66 -31 36 65 12 1 13 2 14 hvcurveto
          -90 hlineto
          -3 -18 -2 -18 -17 vvcurveto
          -94 55 -66 131 vhcurveto
          47 329 rmoveto
          -83 -32 52 70 93 64 93 110 84 38 -50 -74 -98 -68 -86 -113 hvcurveto
          endchar
        </CharString>
        <CharString name="notequal">
          -134 75 25 rmoveto
          72 hlineto
          57 81 rlineto
          280 -69 callsubr
          -236 hlineto
          92 129 rlineto
          167 -11 callgsubr
          -122 hlineto
          58 82 rlineto
          -72 hlineto
          -58 -82 rlineto
          -279 hlineto
          -15 -84 rlineto
          234 hlineto
          -92 -129 rlineto
          -165 hlineto
          -15 -83 rlineto
          121 hlineto
          endchar
        </CharString>
        <CharString name="ntilde">
          177 619 rmoveto
          64 hlineto
          23 6 13 8 15 -103 callsubr
          -164 -619 rmoveto
          -87 callsubr
        </CharString>
        <CharString name="numbersign">
          48 -12 rmoveto
          77 hlineto
          42 191 rlineto
          153 hlineto
          -42 -191 rlineto
          77 hlineto
          42 191 rlineto
          101 76 -85 hlineto
          34 155 rlineto
          96 76 -79 -4 callsubr
          -153 -4 callsubr
          -102 -76 85 hlineto
          -34 -155 rlineto
          -96 -76 80 hlineto
          93 76 rmoveto
          34 155 rlineto
          153 hlineto
          -34 -155 rlineto
          endchar
        </CharString>
        <CharString name="o">
          236 -12 -106 callgsubr
          endchar
        </CharString>
        <CharString name="oacute">
          270 591 -95 callgsubr
          -142 -735 -106 callgsubr
          endchar
        </CharString>
        <CharString name="oacute.loclPLK">
          264 591 -62 callgsubr
          -74 -735 -106 callgsubr
          endchar
        </CharString>
        <CharString name="obreve">
          314 -83 callsubr
          -78 -618 -106 callgsubr
          endchar
        </CharString>
        <CharString name="ocircumflex">
          161 -77 callsubr
          -54 -735 -106 callgsubr
          endchar
        </CharString>
        <CharString name="odieresis">
          183 -63 callgsubr
          -151 -735 -106 callgsubr
          endchar
        </CharString>
        <CharString name="oe">
          261 240 -12 rmoveto
          92 65 39 60 44 hvcurveto
          -67 34 69 -32 104 hhcurveto
          113 98 -24 callsubr
          21 hvcurveto
          -86 hlineto
          -85 -14 -64 -33 -70 hhcurveto
          -95 -45 45 95 12 0 12 3 14 hvcurveto
          5 callgsubr
          8 44 rlineto
          5 27 3 24 23 vvcurveto
          119 -74 62 -132 -94 -68 -38 -59 -46 vhcurveto
          66 -33 -66 31 -96 hhcurveto
          -205 -71 -179 -174 -134 75 -63 144 hvcurveto
          3 73 rmoveto
          -88 -42 39 93 27 2 29 5 27 hvcurveto
          100 16 50 89 108 hhcurveto
          88 42 -40 -94 -30 -2 -31 -6 -30 hvcurveto
          -96 -18 -51 -83 -104 hhcurveto
          279 251 -17 callgsubr
        </CharString>
        <CharString name="ogonek">
          -350 165 -42 callsubr
        </CharString>
        <CharString name="ograve">
          276 591 -81 callsubr
          45 -732 -106 callgsubr
          endchar
        </CharString>
        <CharString name="ohorn">
          527 686 -98 callsubr
          endchar
        </CharString>
        <CharString name="ohungarumlaut">
          202 591 -63 callsubr
          -194 -735 -106 callgsubr
          endchar
        </CharString>
        <CharString name="omacron">
          168 627 -73 callsubr
          55 -711 -106 callgsubr
          endchar
        </CharString>
        <CharString name="one">
          35 hmoveto
          429 -38 callgsubr
          -164 hlineto
          108 613 rlineto
          -34 hlineto
          -76 -38 -108 -29 -61 -6 -9 -52 rcurveline
          178 hlineto
          -86 -488 rlineto
          -177 hlineto
          endchar
        </CharString>
        <CharString name="oneeighth">
          151 58 -60 callsubr
          -673 -65 callgsubr
          549 -396 -83 callgsubr
        </CharString>
        <CharString name="onehalf">
          151 58 -60 callsubr
          -664 -65 callgsubr
          409 -384 -66 callgsubr
          endchar
        </CharString>
        <CharString name="onequarter">
          151 54 -60 callsubr
          -664 -65 callgsubr
          550 -384 -50 callgsubr
        </CharString>
        <CharString name="ordfeminine">
          -313 336 430 rmoveto
          9 57 288 0 vhcurveto
          -54 hlineto
          -21 -41 rlineto
          -4 hlineto
          35 -15 -28 14 -45 hhcurveto
          -96 -75 -95 -148 -88 44 -42 68 40 42 22 42 22 hvcurveto
          4 hlineto
          -1 -6 0 -5 -5 vvcurveto
          -34 25 -14 33 21 16 6 5 7 vhcurveto
          7 39 rlineto
          -27 hlineto
          -13 -7 5 13 hvcurveto
          -154 -10 rmoveto
          -39 -18 27 48 98 37 84 72 46 19 -27 -49 -51 -32 -130 -85 hvcurveto
          endchar
        </CharString>
        <CharString name="ordmasculine">
          -318 208 361 rmoveto
          139 48 121 118 92 -51 43 -97 -139 -48 -122 -118 -91 51 -43 97 hvcurveto
          2 58 rmoveto
          -53 -27 24 58 18 1 19 3 18 hvcurveto
          64 11 32 57 68 hhcurveto
          53 27 -25 -58 -16 -1 -17 -3 -16 hvcurveto
          -66 -9 -32 -60 -70 hhcurveto
          endchar
        </CharString>
        <CharString name="orthogonal">
          296 141 hmoveto
          625 hlineto
          12 66 rlineto
          -551 hlineto
          99 559 rlineto
          -74 hlineto
          endchar
        </CharString>
        <CharString name="oslash">
          -72 8 -49 -71 callsubr
        </CharString>
        <CharString name="oslashacute">
          -72 320 591 -95 callgsubr
          -420 -772 -71 callsubr
        </CharString>
        <CharString name="otilde">
          155 619 rmoveto
          64 hlineto
          23 6 13 8 15 -103 callsubr
          81 -631 -106 callgsubr
          endchar
        </CharString>
        <CharString name="p">
          -35 callsubr
          -64 -59 -28 -55 -42 hvcurveto
          -6 71 -65 hlineto
          150 -465 -29 callgsubr
        </CharString>
        <CharString name="paragraph">
          -146 151 -168 rmoveto
          84 hlineto
          140 793 rlineto
          66 hlineto
          -140 -793 rlineto
          84 hlineto
          140 793 rlineto
          61 hlineto
          11 61 rlineto
          -286 hlineto
          -155 -112 -91 -173 -114 83 -55 98 hvcurveto
          endchar
        </CharString>
        <CharString name="parenleft">
          -350 160 -157 rmoveto
          59 hlineto
          -46 92 -30 119 119 vvcurveto
          205 100 200 133 157 vhcurveto
          -59 hlineto
          -170 -150 -96 -192 -210 vvcurveto
          -126 37 -117 72 -97 vhcurveto
          endchar
        </CharString>
        <CharString name="parenright">
          -350 -62 -157 rmoveto
          58 hlineto
          167 150 100 193 212 vvcurveto
          124 -38 118 -72 95 vhcurveto
          -59 hlineto
          46 -91 31 -117 -118 vvcurveto
          -201 -104 -208 -129 -157 vhcurveto
          endchar
        </CharString>
        <CharString name="partialdiff">
          -189 166 -12 rmoveto
          143 103 148 247 42 hvcurveto
          7 43 4 39 35 vvcurveto
          165 -85 70 -98 -47 -33 -13 -16 -29 vhcurveto
          -13 -74 rlineto
          18 28 35 16 46 hhcurveto
          78 36 -73 -104 -32 -4 -48 -11 -29 hvcurveto
          -4 hlineto
          26 -10 -34 43 -75 hhcurveto
          -99 -127 -116 -185 -90 46 -70 101 hvcurveto
          10 73 rmoveto
          -44 -24 36 57 115 76 113 73 57 28 -46 -37 4 hvcurveto
          -122 -30 -66 -116 -74 hhcurveto
          endchar
        </CharString>
        <CharString name="percent">
          206 220 337 rmoveto
          110 50 81 90 13 hvcurveto
          2 17 1 17 17 vvcurveto
          95 -48 44 -92 -104 -50 -72 -86 -16 vhcurveto
          -4 -21 -2 -23 -22 vvcurveto
          -93 48 -44 92 vhcurveto
          -127 -337 rmoveto
          87 hlineto
          617 686 -68 callgsubr
          -490 -290 rmoveto
          -41 -19 23 57 20 2 21 3 19 hvcurveto
          55 11 26 48 54 -15 callsubr
          409 -408 rmoveto
          101 51 69 82 17 hvcurveto
          5 23 2 24 24 vvcurveto
          95 -48 44 -92 -99 -51 -66 -81 -18 vhcurveto
          -5 -25 -3 -26 -26 vvcurveto
          -93 48 -44 92 vhcurveto
          -1 59 rmoveto
          -41 -19 23 57 18 1 19 3 19 hvcurveto
          57 10 27 50 55 -15 callsubr
          endchar
        </CharString>
        <CharString name="period">
          -405 36 hmoveto
          100 -42 callgsubr
          -100 hlineto
          endchar
        </CharString>
        <CharString name="periodcentered">
          -350 116 303 -57 callsubr
          endchar
        </CharString>
        <CharString name="perthousand">
          317 172 342 rmoveto
          101 46 75 86 14 hvcurveto
          3 19 1 19 19 vvcurveto
          94 -44 43 -87 -92 -47 -62 -77 -17 vhcurveto
          -6 -26 -3 -28 -27 -1 callgsubr
          -119 -342 rmoveto
          78 hlineto
          496 -49 callsubr
          -79 hlineto
          -377 -286 -22 callsubr
          -14 -1 -14 -1 -14 hvcurveto
          -61 -7 -25 -56 -58 hhcurveto
          301 -412 rmoveto
          105 46 80 90 11 hvcurveto
          2 16 1 16 16 vvcurveto
          94 -44 43 -87 -96 -46 -67 -81 -16 vhcurveto
          -5 -24 -2 -24 -24 -1 callgsubr
          326 hmoveto
          96 47 68 80 16 hvcurveto
          4 23 2 24 23 vvcurveto
          94 -44 43 -87 -102 -46 -76 -88 -13 vhcurveto
          -3 -19 -1 -18 -19 -1 callgsubr
          -327 58 -22 callsubr
          -13 -1 -13 -1 -13 hvcurveto
          -62 -7 -24 -58 -59 hhcurveto
          326 hmoveto
          -37 -19 23 56 15 1 15 2 15 hvcurveto
          59 8 25 56 54 hhcurveto
          40 18 -23 -57 -16 -1 -17 -2 -17 hvcurveto
          -57 -9 -25 -52 -55 hhcurveto
          endchar
        </CharString>
        <CharString name="peseta">
          411 563 -11 rmoveto
          24 30 6 8 19 hvcurveto
          9 51 rlineto
          -39 22 51 -27 91 hhcurveto
          110 106 56 128 hvcurveto
          161 -245 -48 98 vvcurveto
          27 18 55 88 58 20 -30 -35 -5 0 -6 -3 -14 vhcurveto
          86 hlineto
          3 7 4 22 14 vvcurveto
          67 -52 53 -108 -31 -29 -4 -8 -26 vhcurveto
          -166 hlineto
          34 145 rlineto
          -94 hlineto
          -27 -145 rlineto
          -38 hlineto
          96 -62 64 -128 vhcurveto
          -187 hlineto
          -121 -686 rlineto
          95 hlineto
          46 -5 callsubr
          112 hlineto
          117 90 75 115 29 hvcurveto
          33 hlineto
          -62 -353 rlineto
          -2 -10 -1 -9 -9 vvcurveto
          -45 22 -38 65 vhcurveto
          -388 357 rmoveto
          0 callsubr
          97 hlineto
          69 34 -34 -60 -100 -66 -63 -82 hvcurveto
          540 -286 rmoveto
          -54 -40 22 53 6 1 6 3 17 hvcurveto
          -84 hlineto
          -5 -12 callgsubr
          -12 vvcurveto
          -18 4 -18 8 -16 vhcurveto
          -38 hlineto
          -26 -11 11 23 4 0 4 5 30 hvcurveto
          57 320 rlineto
          85 hlineto
          -16 -24 -13 -32 -29 -154 244 51 -112 vvcurveto
          -61 -57 -32 -60 vhcurveto
          endchar
        </CharString>
        <CharString name="pi">
          7 45 hmoveto
          92 hlineto
          56 89 74 235 32 129 rrcurveto
          197 hlineto
          -54 -306 rlineto
          -8 -48 -4 -37 -26 vvcurveto
          -17 2 -13 3 -6 vhcurveto
          86 hlineto
          -2 9 -1 11 13 vvcurveto
          28 5 39 10 56 vhcurveto
          52 297 rlineto
          97 hlineto
          23 73 rlineto
          -455 hlineto
          -96 -58 -11 -19 -31 hvcurveto
          5 -56 rlineto
          9 27 38 4 70 hhcurveto
          -26 -129 -73 -218 -61 -106 rrcurveto
          endchar
        </CharString>
        <CharString name="plus">
          -99 202 hmoveto
          87 hlineto
          38 -33 callgsubr
          endchar
        </CharString>
        <CharString name="plusminus">
          -134 197 127 rmoveto
          87 hlineto
          37 -33 callgsubr
          -252 -340 -32 callgsubr
        </CharString>
        <CharString name="product">
          140 64 -128 rmoveto
          95 hlineto
          136 771 rlineto
          352 hlineto
          -136 -771 rlineto
          94 hlineto
          136 771 rlineto
          101 hlineto
          15 80 rlineto
          -741 hlineto
          -15 -80 rlineto
          99 hlineto
          endchar
        </CharString>
        <CharString name="q">
          315 -173 rmoveto
          88 hlineto
          123 699 rlineto
          -66 hlineto
          -23 -71 rlineto
          -6 hlineto
          55 -28 -58 28 -73 hhcurveto
          -149 -102 -144 -215 -132 64 -59 102 70 52 27 45 41 hvcurveto
          6 hlineto
          -136 1 rmoveto
          -74 -34 33 88 155 58 128 121 76 32 -47 -86 -135 -60 -136 -119 hvcurveto
          endchar
        </CharString>
        <CharString name="question">
          202 180 rmoveto
          87 hlineto
          7 41 rlineto
          18 106 216 13 205 vvcurveto
          95 -75 58 -113 -172 -92 -112 -127 -4 vhcurveto
          89 hlineto
          13 7 149 166 84 16 -51 -39 vhcurveto
          -1 -145 -198 -10 -25 -140 rrcurveto
          -45 -236 -57 callsubr
          endchar
        </CharString>
        <CharString name="questiondown">
          -72 296 418 -57 callsubr
          -75 -698 rmoveto
          172 92 112 127 4 hvcurveto
          -89 hlineto
          -13 -7 -149 -166 -84 -16 51 39 vhcurveto
          1 145 198 10 25 140 10 56 rcurveline
          -87 hlineto
          -7 -41 rlineto
          -18 -106 -216 -13 -205 vvcurveto
          -95 75 -58 113 vhcurveto
          endchar
        </CharString>
        <CharString name="quotedbl">
          -328 82 408 -33 callsubr
          162 -132 -33 callsubr
          endchar
        </CharString>
        <CharString name="quotedblbase">
          -350 12 -134 -53 callsubr
          89 -134 -53 callsubr
          endchar
        </CharString>
        <CharString name="quotedblleft">
          -350 45 444 -39 callsubr
          134 -99 -39 callsubr
          endchar
        </CharString>
        <CharString name="quotedblright">
          -350 -20 callsubr
          88 -134 1 callsubr
          73 143 18 99 rlineto
          -100 hlineto
          -19 -108 rlineto
          40 hlineto
          endchar
        </CharString>
        <CharString name="quoteleft">
          -461 86 444 -39 callsubr
          endchar
        </CharString>
        <CharString name="quotereversed">
          -461 94 454 1 callsubr
          -18 124 rlineto
          40 -42 callgsubr
          -100 hlineto
          -18 -99 rlineto
          endchar
        </CharString>
        <CharString name="quoteright">
          -461 -20 callsubr
          endchar
        </CharString>
        <CharString name="quotesinglbase">
          -461 12 -134 -53 callsubr
          endchar
        </CharString>
        <CharString name="quotesingle">
          -492 82 408 -33 callsubr
          endchar
        </CharString>
        <CharString name="r">
          -40 callsubr
          endchar
        </CharString>
        <CharString name="racute">
          -350 181 591 -95 callgsubr
          -276 -723 rmoveto
          -79 callgsubr
          endchar
        </CharString>
        <CharString name="radical">
          -134 207 -148 rmoveto
          90 hlineto
          339 1005 rlineto
          -71 hlineto
          -293 -887 -2 21 -1 25 -5 28 rlinecurve
          -66 347 -174 -68 9 -60 83 30 rlineto
          endchar
        </CharString>
        <CharString name="rcaron">
          -350 182 588 -94 callgsubr
          -87 -723 rmoveto
          -79 callgsubr
          endchar
        </CharString>
        <CharString name="rcommaaccent">
          -40 callsubr
          -135 -756 -76 callgsubr
        </CharString>
        <CharString name="registered">
          -56 callsubr
          -144 103 rmoveto
          68 160 111 hlineto
          80 -160 rlineto
          72 hlineto
          -87 171 rlineto
          48 19 24 43 55 vvcurveto
          72 -42 51 -84 vhcurveto
          -190 hlineto
          68 -195 rmoveto
          139 112 vlineto
          43 24 -23 -44 -46 -27 -26 -40 hvcurveto
          endchar
        </CharString>
        <CharString name="revlogicalnot">
          -99 42 197 rmoveto
          84 hlineto
          29 163 rlineto
          389 hlineto
          16 93 rlineto
          -473 hlineto
          endchar
        </CharString>
        <CharString name="ring">
          -350 154 566 -69 callgsubr
          endchar
        </CharString>
        <CharString name="s">
          -61 callgsubr
          endchar
        </CharString>
        <CharString name="sacute">
          -183 264 591 -95 callgsubr
          -160 -735 -96 callgsubr
          endchar
        </CharString>
        <CharString name="sacute.loclPLK">
          -183 258 591 -62 callgsubr
          -92 -735 -96 callgsubr
          endchar
        </CharString>
        <CharString name="scaron">
          -183 265 588 -94 callgsubr
          29 -735 -96 callgsubr
          endchar
        </CharString>
        <CharString name="scedilla">
          -183 460 375 rmoveto
          3 6 4 21 14 vvcurveto
          68 -63 54 -127 -124 -94 -66 -104 vhcurveto
          -158 283 53 -116 vvcurveto
          -56 -64 -31 -73 -65 -49 23 54 4 1 12 3 11 vhcurveto
          -87 3 callsubr
          -24 -22 vvcurveto
          -62 47 -55 119 -11 vhcurveto
          -24 -67 -35 callgsubr
          24 rlineto
          110 5 98 56 122 167 -284 -51 101 vvcurveto
          27 21 50 105 74 24 -31 -36 -8 -1 -7 -2 -8 vhcurveto
          endchar
        </CharString>
        <CharString name="scircumflex">
          -183 155 -77 callsubr
          -72 -735 -96 callgsubr
          endchar
        </CharString>
        <CharString name="scommaaccent">
          -61 callgsubr
          -94 -218 -76 callgsubr
        </CharString>
        <CharString name="second">
          -329 76 515 -16 callsubr
          87 -171 -16 callsubr
          endchar
        </CharString>
        <CharString name="section">
          201 -10 callsubr
          153 96 69 109 50 -27 32 -36 26 hvcurveto
          63 28 61 52 79 176 -311 -24 120 vvcurveto
          17 8 74 136 86 27 -33 -36 -4 0 -5 -3 -13 vhcurveto
          92 -11 callsubr
          20 13 vvcurveto
          69 -66 55 -133 -155 -94 -69 -111 -49 26 -33 36 -25 vhcurveto
          -62 -27 -62 -52 -79 -176 312 24 -121 vvcurveto
          -14 -7 -76 -137 -86 -27 32 37 4 0 4 3 14 vhcurveto
          -92 hlineto
          -3 -6 -4 -20 -12 vvcurveto
          -70 65 -55 134 vhcurveto
          129 318 rmoveto
          -91 39 -103 24 80 vvcurveto
          47 32 34 56 19 vhcurveto
          92 -38 103 -25 -79 vvcurveto
          -48 -34 -33 -55 -20 vhcurveto
          endchar
        </CharString>
        <CharString name="semicolon">
          -405 110 418 -57 callsubr
          -117 -660 -53 callsubr
          endchar
        </CharString>
        <CharString name="seven">
          91 hmoveto
          102 hlineto
          2 16 3 16 3 15 53 250 175 189 153 147 9 53 rcurveline
          -486 hlineto
          -15 -84 rlineto
          353 hlineto
          -134 -144 -176 -221 -42 -237 rrcurveto
          endchar
        </CharString>
        <CharString name="seveneighths">
          151 20 -60 callsubr
          -569 -370 rmoveto
          71 hlineto
          15 129 87 102 90 85 7 42 rcurveline
          -260 hlineto
          -10 -56 rlineto
          179 hlineto
          -72 -74 -85 -104 -22 -124 rrcurveto
          469 -340 -83 callgsubr
        </CharString>
        <CharString name="six">
          237 -12 rmoveto
          140 123 107 164 106 -60 76 -133 -66 -64 -26 -45 -45 hvcurveto
          157 31 50 98 123 hhcurveto
          66 31 -36 -65 -12 -1 -13 -2 -14 hvcurveto
          90 hlineto
          3 18 2 18 17 vvcurveto
          94 -55 66 -131 -157 -101 -95 -280 -47 vhcurveto
          -8 -47 -4 -41 -35 vvcurveto
          -158 81 -54 134 vhcurveto
          -4 73 rmoveto
          -84 -38 50 74 98 68 86 113 83 32 -52 -70 -93 -64 -93 -110 hvcurveto
          endchar
        </CharString>
        <CharString name="slash">
          -405 -68 -49 rmoveto
          70 hlineto
          344 784 rlineto
          -70 hlineto
          endchar
        </CharString>
        <CharString name="space">
          -405 endchar
        </CharString>
        <CharString name="sterling">
          -4 callgsubr
          52 225 rlineto
          166 hlineto
          12 72 rlineto
          -165 hlineto
          25 139 -40 callgsubr
          -22 -123 rlineto
          -90 hlineto
          -12 -72 rlineto
          90 hlineto
          -40 -225 rlineto
          -75 hlineto
          endchar
        </CharString>
        <CharString name="summation">
          30 -36 -128 rmoveto
          630 hlineto
          16 88 rlineto
          -501 hlineto
          1 4 361 344 -230 333 1 4 rlineto
          470 hlineto
          14 78 rlineto
          -602 hlineto
          -12 -67 245 -357 -381 -364 rlineto
          endchar
        </CharString>
        <CharString name="t">
          -405 135 -11 -79 callsubr
          endchar
        </CharString>
        <CharString name="tbar">
          -405 282 453 rmoveto
          13 73 rlineto
          -89 hlineto
          34 146 rlineto
          -96 hlineto
          -26 -146 rlineto
          -64 hlineto
          -13 -73 rlineto
          64 hlineto
          -22 -128 rlineto
          -65 hlineto
          -11 -62 rlineto
          65 hlineto
          -22 -126 rlineto
          -5 -27 -4 -26 -12 vvcurveto
          -45 23 -38 71 21 30 6 8 17 vhcurveto
          10 58 rlineto
          -49 hlineto
          -23 -10 11 23 2 0 6 1 5 hvcurveto
          27 155 rlineto
          89 hlineto
          11 62 rlineto
          -89 hlineto
          23 128 rlineto
          endchar
        </CharString>
        <CharString name="tcaron">
          -308 331 527 rmoveto
          44 -49 callgsubr
          34 hlineto
          -249 -643 -79 callsubr
          endchar
        </CharString>
        <CharString name="thorn">
          -35 callsubr
          -60 -53 -24 -48 -41 hvcurveto
          -5 hlineto
          0 callsubr
          -88 hlineto
          116 -662 -29 callgsubr
        </CharString>
        <CharString name="three">
          246 -12 rmoveto
          143 118 85 137 75 -42 47 -60 20 hvcurveto
          1 4 rlineto
          79 31 65 50 100 vvcurveto
          104 -83 57 -130 -123 -108 -72 -127 -16 vhcurveto
          -1 -7 rlineto
          89 hlineto
          1 9 rlineto
          64 7 57 60 97 hhcurveto
          64 53 -28 -66 -99 -84 -47 -81 hvcurveto
          -75 hlineto
          -13 -73 rlineto
          72 hlineto
          74 67 -20 -76 -108 -84 -47 -97 -83 -46 34 66 13 3 19 2 9 hvcurveto
          -89 hlineto
          -5 -18 -1 -18 -13 vvcurveto
          -101 78 -64 151 vhcurveto
          endchar
        </CharString>
        <CharString name="threeeighths">
          151 55 -60 callsubr
          -536 -370 rmoveto
          74 65 47 73 33 -17 23 -28 15 hvcurveto
          2 vlineto
          38 18 28 -86 callsubr
          432 -340 -83 callgsubr
        </CharString>
        <CharString name="threequarters">
          151 67 -60 callsubr
          -539 -370 rmoveto
          74 65 47 73 33 -17 23 -28 15 hvcurveto
          2 vlineto
          38 18 28 -86 callsubr
          429 -328 -50 callgsubr
        </CharString>
        <CharString name="tilde">
          -350 -6 619 rmoveto
          64 hlineto
          23 6 13 8 15 -103 callsubr
          endchar
        </CharString>
        <CharString name="trademark">
          317 186 283 rmoveto
          67 hlineto
          60 341 rlineto
          141 hlineto
          11 63 rlineto
          -350 hlineto
          -11 -63 rlineto
          142 hlineto
          203 -342 rmoveto
          61 hlineto
          58 329 rlineto
          5 hlineto
          53 -329 rlineto
          64 hlineto
          170 329 rlineto
          5 hlineto
          -58 -329 rlineto
          67 hlineto
          71 405 rlineto
          -108 hlineto
          -161 -316 rlineto
          -5 hlineto
          -49 316 rlineto
          -102 hlineto
          endchar
        </CharString>
        <CharString name="two">
          -12 hmoveto
          470 -11 callgsubr
          -363 hlineto
          7 11 9 11 13 13 rrcurveto
          127 123 280 91 200 vvcurveto
          116 -80 49 -117 -135 -129 -72 -176 -8 vhcurveto
          88 hlineto
          8 41 rlineto
          71 14 45 60 109 hhcurveto
          86 27 -42 -41 -207 -421 -72 -40 -231 hvcurveto
          endchar
        </CharString>
        <CharString name="u">
          191 -12 -104 callgsubr
          endchar
        </CharString>
        <CharString name="uacute">
          283 591 -95 callgsubr
          -200 -735 -104 callgsubr
          endchar
        </CharString>
        <CharString name="ubreve">
          327 -83 callsubr
          -136 -618 -104 callgsubr
          endchar
        </CharString>
        <CharString name="ucircumflex">
          174 -77 callsubr
          -112 -735 -104 callgsubr
          endchar
        </CharString>
        <CharString name="udieresis">
          196 -63 callgsubr
          -209 -735 -104 callgsubr
          endchar
        </CharString>
        <CharString name="ugrave">
          289 591 -81 callsubr
          -13 -732 -104 callgsubr
          endchar
        </CharString>
        <CharString name="uhorn">
          -89 callsubr
          endchar
        </CharString>
        <CharString name="uhungarumlaut">
          215 591 -63 callsubr
          -252 -735 -104 callgsubr
          endchar
        </CharString>
        <CharString name="umacron">
          181 627 -73 callsubr
          -3 -711 -104 callgsubr
          endchar
        </CharString>
        <CharString name="underscore">
          -67 -124 rmoveto
          555 hlineto
          9 53 rlineto
          -556 hlineto
          endchar
        </CharString>
        <CharString name="underscoredbl">
          -131 -60 -124 rmoveto
          551 hlineto
          9 53 rlineto
          -551 hlineto
          -24 -146 rmoveto
          550 hlineto
          9 53 rlineto
          -550 hlineto
          endchar
        </CharString>
        <CharString name="uni00A0">
          -405 endchar
        </CharString>
        <CharString name="uni00AD">
          -14 callsubr
        </CharString>
        <CharString name="uni00B2">
          -350 37 335 -66 callgsubr
          endchar
        </CharString>
        <CharString name="uni00B3">
          -350 171 328 rmoveto
          74 65 47 73 33 -16 23 -29 15 hvcurveto
          2 vlineto
          39 18 27 -86 callsubr
          endchar
        </CharString>
        <CharString name="uni00B5">
          -52 callgsubr
        </CharString>
        <CharString name="uni00B9">
          -350 51 328 rmoveto
          231 hlineto
          10 56 -5 callgsubr
          53 302 rlineto
          -30 hlineto
          -37 -19 -57 -14 -33 -4 -8 -40 rcurveline
          88 hlineto
          -39 -225 -68 callgsubr
          endchar
        </CharString>
        <CharString name="uni0162">
          -72 82 686 rmoveto
          -15 -83 rlineto
          236 hlineto
          -106 -603 rlineto
          15 hlineto
          -28 -77 -72 callgsubr
          -45 callgsubr
          13 36 rlineto
          18 hlineto
          106 603 rlineto
          236 -69 callsubr
          endchar
        </CharString>
        <CharString name="uni0163">
          -405 193 453 rmoveto
          89 -38 callgsubr
          -89 hlineto
          34 146 rlineto
          -96 hlineto
          -26 -146 rlineto
          -64 hlineto
          -13 -73 rlineto
          64 hlineto
          -55 -316 rlineto
          -5 -27 -4 -26 -12 vvcurveto
          -24 6 -22 17 -15 vhcurveto
          -32 -88 -35 callgsubr
          26 rlineto
          -1 6 5 0 6 hhcurveto
          21 30 6 8 17 hvcurveto
          10 58 rlineto
          -49 hlineto
          -23 -10 11 23 2 0 6 1 5 hvcurveto
          endchar
        </CharString>
        <CharString name="uni018F">
          75 329 -12 rmoveto
          117 91 33 65 65 hvcurveto
          78 78 46 147 114 vvcurveto
          173 -112 100 -180 -93 -75 -16 -31 -57 vhcurveto
          -72 -40 -44 -65 -16 -92 rrcurveto
          91 hlineto
          109 19 83 54 149 hhcurveto
          131 80 -57 -130 -18 -2 -20 -3 -21 hvcurveto
          -563 hlineto
          -11 -62 rlineto
          -5 -27 -3 -26 -25 vvcurveto
          -154 103 -89 183 vhcurveto
          13 81 rmoveto
          -123 -80 45 115 17 2 18 3 19 hvcurveto
          462 hlineto
          -154 -43 -79 -60 -142 hhcurveto
          endchar
        </CharString>
        <CharString name="uni019D">
          39 -34 -25 callsubr
          85 481 6 37 7 37 6 37 rlinecurve
          5 1 16 -28 15 -29 16 -28 rlinecurve
          250 -447 rlineto
          81 -28 callsubr
          -89 hlineto
          -81 -460 -11 -62 -4 -1 -8 15 -9 14 -8 15 rlinecurve
          -270 479 -7 callsubr
          -132 -751 rlineto
          -31 -5 -18 -17 -31 hhcurveto
          -44 hlineto
          -10 -57 rlineto
          -6 16 27 -6 24 hhcurveto
          endchar
        </CharString>
        <CharString name="uni01C4">
          650 1072 733 -94 callgsubr
          -972 -868 rmoveto
          -64 callsubr
        </CharString>
        <CharString name="uni01C5">
          539 987 588 -94 callgsubr
          -887 -723 rmoveto
          -81 callgsubr
          409 -83 rmoveto
          -84 callsubr
          endchar
        </CharString>
        <CharString name="uni01C6">
          373 -78 callgsubr
          622 600 -94 callgsubr
          -209 -723 rmoveto
          -84 callsubr
          -314 14 -29 callsubr
        </CharString>
        <CharString name="uni01C7">
          373 18 hmoveto
          -58 callsubr
          590 -698 -82 callgsubr
        </CharString>
        <CharString name="uni01C8">
          95 679 -44 callsubr
          -678 -723 rmoveto
          -58 callsubr
          377 -868 -84 callgsubr
        </CharString>
        <CharString name="uni01C9">
          -239 -31 callgsubr
          205 -98 -51 callsubr
          -180 -905 -84 callgsubr
        </CharString>
        <CharString name="uni01CA">
          539 -47 callsubr
          756 -698 -82 callgsubr
        </CharString>
        <CharString name="uni01CB">
          261 845 -44 callsubr
          -844 -723 rmoveto
          -92 callgsubr
          543 -868 -84 callgsubr
        </CharString>
        <CharString name="uni01CC">
          95 679 -44 callsubr
          -683 -723 rmoveto
          -75 callsubr
          410 -708 -84 callgsubr
        </CharString>
        <CharString name="uni01CD">
          -16 378 733 -94 callgsubr
          -337 -868 -100 callgsubr
        </CharString>
        <CharString name="uni01CE">
          358 588 rmoveto
          129 135 rlineto
          -94 hlineto
          -70 -79 -45 79 rlineto
          -86 hlineto
          82 -135 rlineto
          166 -500 -106 callsubr
        </CharString>
        <CharString name="uni01CF">
          -405 166 733 -94 callgsubr
          -53 -868 -67 callgsubr
        </CharString>
        <CharString name="uni01D0">
          -405 141 588 -94 callgsubr
          -24 -50 callsubr
        </CharString>
        <CharString name="uni01D1">
          95 403 733 -94 callgsubr
          13 -879 -107 callsubr
          endchar
        </CharString>
        <CharString name="uni01D2">
          271 588 -94 callgsubr
          47 -735 -106 callgsubr
          endchar
        </CharString>
        <CharString name="uni01D3">
          39 388 733 -94 callgsubr
          12 -880 -105 callsubr
          endchar
        </CharString>
        <CharString name="uni01D4">
          284 588 -94 callgsubr
          -11 -735 -104 callgsubr
          endchar
        </CharString>
        <CharString name="uni01D5">
          39 315 939 -73 callsubr
          -28 -238 -94 callsubr
          -186 -880 -105 callsubr
          endchar
        </CharString>
        <CharString name="uni01D6">
          211 794 -73 callsubr
          -28 -238 -94 callsubr
          -209 -735 -104 callgsubr
          endchar
        </CharString>
        <CharString name="uni01D7">
          39 417 903 -95 callgsubr
          -225 -262 -94 callsubr
          -186 -880 -105 callsubr
          endchar
        </CharString>
        <CharString name="uni01D8">
          313 758 -95 callgsubr
          -225 -262 -94 callsubr
          -209 -735 -104 callgsubr
          endchar
        </CharString>
        <CharString name="uni01D9">
          39 418 900 -94 callgsubr
          -36 -262 -94 callsubr
          -186 -880 -105 callsubr
          endchar
        </CharString>
        <CharString name="uni01DA">
          314 755 -94 callgsubr
          -36 -262 -94 callsubr
          -209 -735 -104 callgsubr
          endchar
        </CharString>
        <CharString name="uni01DB">
          39 423 903 -81 callsubr
          -38 -259 -94 callsubr
          -186 -880 -105 callsubr
          endchar
        </CharString>
        <CharString name="uni01DC">
          319 758 -81 callsubr
          -38 -259 -94 callsubr
          -209 -735 -104 callgsubr
          endchar
        </CharString>
        <CharString name="uni01EA">
          95 444 699 rmoveto
          -220 -139 -122 -225 -39 hvcurveto
          -6 -31 -3 -32 -33 vvcurveto
          -168 110 -99 187 18 18 1 2 17 vhcurveto
          -28 -25 -23 -31 -44 -56 callgsubr
          140 43 89 112 30 175 rrcurveto
          6 31 3 32 33 vvcurveto
          166 -110 98 -186 1 vhcurveto
          191 -347 rmoveto
          -190 -33 -99 -91 -169 hhcurveto
          -125 -74 69 116 29 2 27 5 26 hvcurveto
          189 33 99 91 170 -31 callsubr
          74 -68 -116 -29 -2 -27 -5 -26 hvcurveto
          endchar
        </CharString>
        <CharString name="uni01EB">
          300 538 rmoveto
          -156 -90 -88 -181 -27 hvcurveto
          -3 -28 -2 -24 -21 vvcurveto
          -131 79 -77 135 9 9 0 1 9 vhcurveto
          -26 -24 -22 -30 -43 -56 callgsubr
          1 vlineto
          86 35 53 82 19 131 rrcurveto
          3 30 3 24 22 vvcurveto
          129 -79 76 -136 vhcurveto
          121 -269 rmoveto
          -146 -21 -55 -61 -105 hhcurveto
          -85 -43 43 78 -2 hvcurveto
          20 1 26 4 28 vhcurveto
          146 21 55 62 105 hhcurveto
          86 43 -43 -79 2 hvcurveto
          -20 -2 -26 -4 -28 vhcurveto
          endchar
        </CharString>
        <CharString name="uni01F1">
          650 18 hmoveto
          -64 callsubr
        </CharString>
        <CharString name="uni01F2">
          539 18 hmoveto
          -81 callgsubr
          409 -83 rmoveto
          -84 callsubr
          endchar
        </CharString>
        <CharString name="uni01F3">
          373 -78 callgsubr
          331 12 rmoveto
          -84 callsubr
          -314 14 -29 callsubr
        </CharString>
        <CharString name="uni01F4">
          95 603 865 -62 callsubr
          247 -284 -101 callgsubr
          endchar
        </CharString>
        <CharString name="uni01F5">
          268 591 -95 callgsubr
          -186 -905 -102 callsubr
        </CharString>
        <CharString name="uni0200">
          -16 327 736 -85 callsubr
          -446 -865 -100 callgsubr
        </CharString>
        <CharString name="uni0201">
          299 591 rmoveto
          -38 132 rlineto
          -97 hlineto
          -2 -3 61 -129 rlineto
          215 hmoveto
          -38 132 rlineto
          -97 hlineto
          -2 -3 61 -129 rlineto
          78 -503 -106 callsubr
        </CharString>
        <CharString name="uni0202">
          -16 277 751 -92 callsubr
          -318 -78 callsubr
          endchar
        </CharString>
        <CharString name="uni0203">
          328 659 rmoveto
          64 12 -31 -22 -1 hvcurveto
          61 hlineto
          1 6 1 6 6 vvcurveto
          50 -34 49 -93 -120 -36 -62 -55 -10 vhcurveto
          61 hlineto
          22 9 21 31 64 hhcurveto
          112 -571 -106 callsubr
        </CharString>
        <CharString name="uni0204">
          -16 327 736 -85 callsubr
          -387 -865 rmoveto
          -100 callsubr
          endchar
        </CharString>
        <CharString name="uni0205">
          222 591 -85 callsubr
          -47 -732 -105 callgsubr
          endchar
        </CharString>
        <CharString name="uni0206">
          -16 277 751 -92 callsubr
          -259 -751 rmoveto
          -100 callsubr
          endchar
        </CharString>
        <CharString name="uni0207">
          172 606 -92 callsubr
          81 -618 -105 callgsubr
          endchar
        </CharString>
        <CharString name="uni0208">
          -405 115 736 -85 callsubr
          -162 -865 -67 callgsubr
        </CharString>
        <CharString name="uni0209">
          -405 90 591 -85 callsubr
          -133 -720 -66 callsubr
        </CharString>
        <CharString name="uni020A">
          -405 65 751 -92 callsubr
          -34 -751 -67 callgsubr
        </CharString>
        <CharString name="uni020B">
          -405 40 606 -92 callsubr
          -5 -606 -66 callsubr
        </CharString>
        <CharString name="uni020C">
          95 352 736 -85 callsubr
          -96 -876 -107 callsubr
          endchar
        </CharString>
        <CharString name="uni020D">
          220 591 -85 callsubr
          -62 -732 -106 callgsubr
          endchar
        </CharString>
        <CharString name="uni020E">
          95 302 751 -92 callsubr
          32 -762 -107 callsubr
          endchar
        </CharString>
        <CharString name="uni020F">
          170 606 -92 callsubr
          66 -618 -106 callgsubr
          endchar
        </CharString>
        <CharString name="uni0210">
          39 308 736 -85 callsubr
          -368 -865 rmoveto
          -88 callsubr
          endchar
        </CharString>
        <CharString name="uni0211">
          -350 131 591 -85 callsubr
          -196 -720 rmoveto
          -79 callgsubr
          endchar
        </CharString>
        <CharString name="uni0212">
          39 258 751 -92 callsubr
          -240 -751 rmoveto
          -88 callsubr
          endchar
        </CharString>
        <CharString name="uni0213">
          -350 81 606 -92 callsubr
          -68 -606 rmoveto
          -79 callgsubr
          endchar
        </CharString>
        <CharString name="uni0214">
          39 337 736 -85 callsubr
          -97 -877 -105 callsubr
          endchar
        </CharString>
        <CharString name="uni0215">
          233 591 -85 callsubr
          -120 -732 -104 callgsubr
          endchar
        </CharString>
        <CharString name="uni0216">
          39 287 751 -92 callsubr
          31 -763 -105 callsubr
          endchar
        </CharString>
        <CharString name="uni0217">
          183 606 -92 callsubr
          8 -618 -104 callgsubr
          endchar
        </CharString>
        <CharString name="uni021A">
          -46 callgsubr
          -144 -833 -76 callgsubr
        </CharString>
        <CharString name="uni021B">
          -405 135 -11 -79 callsubr
          -128 -219 -76 callgsubr
        </CharString>
        <CharString name="uni0232">
          -16 255 772 -73 callsubr
          -42 -844 rmoveto
          -82 callsubr
          endchar
        </CharString>
        <CharString name="uni0232.loclGUA">
          -16 275 772 -73 callsubr
          -16 -856 -98 callgsubr
        </CharString>
        <CharString name="uni0233">
          -183 152 627 -73 callsubr
          -127 -881 -96 callsubr
          endchar
        </CharString>
        <CharString name="uni0233.loclGUA">
          190 627 -73 callsubr
          -2 -881 -97 callsubr
        </CharString>
        <CharString name="uni0237">
          -461 -40 -182 -84 callgsubr
        </CharString>
        <CharString name="uni0259">
          221 -12 rmoveto
          90 66 20 46 48 hvcurveto
          64 61 36 127 95 vvcurveto
          128 -72 73 -131 -69 -55 -12 -24 -43 vhcurveto
          -54 -32 -34 -51 -12 -72 rrcurveto
          86 hlineto
          85 15 70 33 79 hhcurveto
          86 43 -40 -91 -14 -1 -16 -2 -17 hvcurveto
          -387 hlineto
          -8 -44 rlineto
          -4 -23 -2 -23 -20 vvcurveto
          -120 68 -69 123 vhcurveto
          15 73 rmoveto
          -73 -45 29 77 14 2 16 3 17 hvcurveto
          293 hlineto
          -109 -29 -61 -44 -90 hhcurveto
          endchar
        </CharString>
        <CharString name="uni0272">
          -40 -25 callsubr
          64 362 rlineto
          103 18 85 61 80 hhcurveto
          45 33 -15 -54 -14 -2 -12 callgsubr
          hvcurveto
          -60 -343 -21 callsubr
          61 349 -72 callsubr
          -64 -68 -34 -49 -40 vhcurveto
          -26 callgsubr
          -104 -591 -7 callgsubr
          -31 hhcurveto
          -44 hlineto
          -10 -57 rlineto
          -6 16 27 -6 24 hhcurveto
          endchar
        </CharString>
        <CharString name="uni02BC">
          -482 85 490 rmoveto
          46 -49 callgsubr
          32 hlineto
          endchar
        </CharString>
        <CharString name="uni02C9">
          -350 6 627 -73 callsubr
          endchar
        </CharString>
        <CharString name="uni030F">
          -683 -234 591 -85 callsubr
          endchar
        </CharString>
        <CharString name="uni0311">
          -683 -253 606 -92 callsubr
          endchar
        </CharString>
        <CharString name="uni031B">
          -683 -502 686 rmoveto
          -19 -108 rlineto
          44 hlineto
          -21 -54 -47 -28 -71 -7 rrcurveto
          -56 vlineto
          126 13 72 71 17 115 9 54 rcurveline
          endchar
        </CharString>
        <CharString name="uni0326">
          -683 -173 -230 -76 callgsubr
        </CharString>
        <CharString name="uni0328">
          -683 -168 -42 callsubr
        </CharString>
        <CharString name="uni0394">
          -16 -41 hmoveto
          654 3 callgsubr
          -241 -603 rmoveto
          15 28 16 27 15 28 160 293 rcurveline
          79 145 rlineto
          5 hlineto
          29 -146 57 -295 5 -27 6 -26 5 -27 rlinecurve
          endchar
        </CharString>
        <CharString name="uni03A9">
          -68 callsubr
        </CharString>
        <CharString name="uni03BC">
          -52 callgsubr
        </CharString>
        <CharString name="uni1E0C">
          39 18 hmoveto
          -81 callgsubr
          -46 -256 -99 callsubr
          endchar
        </CharString>
        <CharString name="uni1E0D">
          -78 callgsubr
          25 73 -70 callsubr
          -66 -234 -99 callsubr
          endchar
        </CharString>
        <CharString name="uni1E24">
          -39 callgsubr
          102 -859 -99 callsubr
          endchar
        </CharString>
        <CharString name="uni1E25">
          13 hmoveto
          -74 callgsubr
          45 256 -68 callgsubr
          18 -896 -99 callsubr
          endchar
        </CharString>
        <CharString name="uni1E44">
          39 410 -36 callsubr
          -409 -868 rmoveto
          -92 callgsubr
          endchar
        </CharString>
        <CharString name="uni1E45">
          298 -44 callgsubr
          -302 -723 rmoveto
          -87 callsubr
        </CharString>
        <CharString name="uni1E5A">
          -51 callgsubr
          -194 -539 -99 callsubr
          endchar
        </CharString>
        <CharString name="uni1E5B">
          -40 callsubr
          -123 -699 -99 callsubr
          endchar
        </CharString>
        <CharString name="uni1E62">
          -64 callgsubr
          -75 -161 -99 callsubr
          endchar
        </CharString>
        <CharString name="uni1E63">
          -61 callgsubr
          -82 -161 -99 callsubr
          endchar
        </CharString>
        <CharString name="uni1E6C">
          -46 callgsubr
          -132 -776 -99 callsubr
          endchar
        </CharString>
        <CharString name="uni1E6D">
          -405 135 -11 -79 callsubr
          -116 -162 -99 callsubr
          endchar
        </CharString>
        <CharString name="uni1E92">
          -72 -37 hmoveto
          -80 callsubr
          214 -222 -99 callsubr
          endchar
        </CharString>
        <CharString name="uni1E93">
          -183 -26 hmoveto
          -84 callsubr
          148 -220 -99 callsubr
          endchar
        </CharString>
        <CharString name="uni1E9E">
          115 18 hmoveto
          95 hlineto
          73 414 rlineto
          138 24 92 65 137 hhcurveto
          118 50 -42 -65 -74 -59 -55 -71 hvcurveto
          -186 hlineto
          -15 -83 rlineto
          189 hlineto
          79 43 -35 -52 -61 -52 -67 -83 hvcurveto
          -214 hlineto
          -15 -83 rlineto
          227 hlineto
          137 97 88 130 67 -37 44 -62 18 hvcurveto
          4 vlineto
          66 22 55 74 77 vvcurveto
          106 -99 68 -162 -183 -138 -93 -184 -31 vhcurveto
          endchar
        </CharString>
        <CharString name="uni1EA0">
          -16 -41 hmoveto
          -104 callsubr
          -246 -439 -99 callsubr
          endchar
        </CharString>
        <CharString name="uni1EA1">
          440 88 -107 callgsubr
          -73 -234 -99 callsubr
          endchar
        </CharString>
        <CharString name="uni1EA2">
          -16 393 736 rmoveto
          -101 callsubr
          -48 callgsubr
          hvcurveto
          -13 hlineto
          -445 -797 -100 callgsubr
        </CharString>
        <CharString name="uni1EA3">
          345 674 rmoveto
          -48 callgsubr
          vhcurveto
          -13 -26 callsubr
          -101 callsubr
          hvcurveto
          95 -586 -106 callsubr
        </CharString>
        <CharString name="uni1EA4">
          -16 518 831 -95 callgsubr
          -358 -230 -102 callgsubr
          -438 -868 -100 callgsubr
        </CharString>
        <CharString name="uni1EA5">
          624 815 -62 callsubr
          -170 -19 -90 callgsubr
        </CharString>
        <CharString name="uni1EA6">
          -16 563 831 -81 callsubr
          -210 -227 -102 callgsubr
          -438 -868 -100 callgsubr
        </CharString>
        <CharString name="uni1EA7">
          534 686 -55 callgsubr
          -129 -19 -90 callgsubr
        </CharString>
        <CharString name="uni1EA8">
          -16 533 831 rmoveto
          -101 callsubr
          -48 callgsubr
          hvcurveto
          -13 hlineto
          -276 -159 -102 callgsubr
          -438 -868 -100 callgsubr
        </CharString>
        <CharString name="uni1EA9">
          478 830 rmoveto
          -21 -31 -3 -5 -22 hvcurveto
          -7 -39 rlineto
          60 hlineto
          18 10 -3 -11 -48 callgsubr
          hvcurveto
          -13 -26 callsubr
          56 hlineto
          5 28 rlineto
          34 3 35 20 44 vvcurveto
          40 -45 9 -36 vhcurveto
          -148 -163 -90 callgsubr
        </CharString>
        <CharString name="uni1EAA">
          -16 287 924 -74 callsubr
          -191 -102 callgsubr
          -438 -868 -100 callgsubr
        </CharString>
        <CharString name="uni1EAB">
          281 810 rmoveto
          -103 callsubr
          64 hlineto
          23 6 13 8 15 hhcurveto
          49 -143 -90 callgsubr
        </CharString>
        <CharString name="uni1EAC">
          -41 callgsubr
          -438 -868 rmoveto
          -104 callsubr
          -246 -439 -99 callsubr
          endchar
        </CharString>
        <CharString name="uni1EAD">
          330 667 rmoveto
          43 -79 rlineto
          86 hlineto
          -82 135 rlineto
          -84 hlineto
          -129 -135 rlineto
          94 hlineto
          182 -500 -107 callgsubr
          -73 -234 -99 callsubr
          endchar
        </CharString>
        <CharString name="uni1EAE">
          -16 383 868 -95 callgsubr
          -70 -249 -93 callgsubr
        </CharString>
        <CharString name="uni1EAF">
          489 852 -62 callsubr
          -48 -117 -103 callgsubr
          123 -518 -106 callsubr
        </CharString>
        <CharString name="uni1EB0">
          -16 400 868 -81 callsubr
          106 -246 -93 callgsubr
        </CharString>
        <CharString name="uni1EB1">
          371 723 -55 callgsubr
          21 -117 -103 callgsubr
          123 -518 -106 callsubr
        </CharString>
        <CharString name="uni1EB2">
          -16 398 868 rmoveto
          -101 callsubr
          -48 callgsubr
          hvcurveto
          -13 hlineto
          12 -178 -93 callgsubr
        </CharString>
        <CharString name="uni1EB3">
          350 806 rmoveto
          -48 callgsubr
          vhcurveto
          -13 -26 callsubr
          -101 callsubr
          hvcurveto
          -33 -200 -103 callgsubr
          123 -518 -106 callsubr
        </CharString>
        <CharString name="uni1EB4">
          -16 274 924 rmoveto
          64 hlineto
          23 6 13 8 15 -103 callsubr
          147 -173 -93 callgsubr
        </CharString>
        <CharString name="uni1EB5">
          268 810 rmoveto
          -103 callsubr
          64 hlineto
          23 6 13 8 15 hhcurveto
          48 -140 rmoveto
          -61 -8 31 22 -1 hvcurveto
          -61 hlineto
          -2 -8 0 -7 -8 vvcurveto
          -48 31 -46 103 46 36 14 20 26 vhcurveto
          29 22 17 32 5 29 rrcurveto
          -61 hlineto
          -22 -7 -29 -31 -63 -31 callsubr
          -582 -106 callsubr
        </CharString>
        <CharString name="uni1EB6">
          -16 421 751 -93 callsubr
          -246 -439 -99 callsubr
          endchar
        </CharString>
        <CharString name="uni1EB7">
          317 -83 callsubr
          123 -518 -107 callgsubr
          -73 -234 -99 callsubr
          endchar
        </CharString>
        <CharString name="uni1EB8">
          -16 18 hmoveto
          -100 callsubr
          75 -859 -99 callsubr
          endchar
        </CharString>
        <CharString name="uni1EB9">
          253 -12 -105 callgsubr
          -260 -485 -99 callsubr
          endchar
        </CharString>
        <CharString name="uni1EBA">
          -16 393 736 rmoveto
          -101 callsubr
          -48 callgsubr
          hvcurveto
          -13 hlineto
          -386 -797 rmoveto
          -100 callsubr
          endchar
        </CharString>
        <CharString name="uni1EBB">
          288 591 rmoveto
          -101 callsubr
          -48 callgsubr
          hvcurveto
          -13 hlineto
          -46 -664 -105 callgsubr
          endchar
        </CharString>
        <CharString name="uni1EBC">
          -16 262 764 rmoveto
          64 hlineto
          23 6 13 8 15 -103 callsubr
          -244 -764 rmoveto
          -100 callsubr
          endchar
        </CharString>
        <CharString name="uni1EBD">
          157 619 rmoveto
          64 hlineto
          23 6 13 8 15 -103 callsubr
          96 -631 -105 callgsubr
          endchar
        </CharString>
        <CharString name="uni1EBE">
          -16 518 831 -95 callgsubr
          -358 -230 -102 callgsubr
          -379 -868 rmoveto
          -100 callsubr
          endchar
        </CharString>
        <CharString name="uni1EBF">
          413 686 -95 callgsubr
          -358 -230 -102 callgsubr
          -39 -735 -105 callgsubr
          endchar
        </CharString>
        <CharString name="uni1EC0">
          -16 563 831 -81 callsubr
          -210 -227 -102 callgsubr
          -379 -868 rmoveto
          -100 callsubr
          endchar
        </CharString>
        <CharString name="uni1EC1">
          458 686 -81 callsubr
          -210 -227 -102 callgsubr
          -39 -735 -105 callgsubr
          endchar
        </CharString>
        <CharString name="uni1EC2">
          -16 533 831 rmoveto
          -101 callsubr
          -48 callgsubr
          hvcurveto
          -13 hlineto
          -276 -159 -102 callgsubr
          -379 -868 rmoveto
          -100 callsubr
          endchar
        </CharString>
        <CharString name="uni1EC3">
          428 686 rmoveto
          -101 callsubr
          -48 callgsubr
          hvcurveto
          -13 hlineto
          -276 -159 -102 callgsubr
          -39 -735 -105 callgsubr
          endchar
        </CharString>
        <CharString name="uni1EC4">
          -16 287 924 -74 callsubr
          -191 -102 callgsubr
          -379 -868 rmoveto
          -100 callsubr
          endchar
        </CharString>
        <CharString name="uni1EC5">
          182 779 -74 callsubr
          -191 -102 callgsubr
          -39 -735 -105 callgsubr
          endchar
        </CharString>
        <CharString name="uni1EC6">
          -41 callgsubr
          -379 -868 rmoveto
          -100 callsubr
          75 -859 -99 callsubr
          endchar
        </CharString>
        <CharString name="uni1EC7">
          163 -77 callsubr
          -39 -735 -105 callgsubr
          -260 -485 -99 callsubr
          endchar
        </CharString>
        <CharString name="uni1EC8">
          -405 181 736 rmoveto
          -101 callsubr
          -48 callgsubr
          hvcurveto
          -13 hlineto
          -161 -797 -67 callgsubr
        </CharString>
        <CharString name="uni1EC9">
          -405 156 591 rmoveto
          -101 callsubr
          -48 callgsubr
          hvcurveto
          -13 hlineto
          -132 -652 -66 callsubr
        </CharString>
        <CharString name="uni1ECA">
          -405 31 hmoveto
          -60 callgsubr
          -147 -859 -99 callsubr
          endchar
        </CharString>
        <CharString name="uni1ECB">
          -30 callgsubr
          -123 -699 -99 callsubr
          endchar
        </CharString>
        <CharString name="uni1ECC">
          95 334 -11 -107 callsubr
          -65 -244 -99 callsubr
          endchar
        </CharString>
        <CharString name="uni1ECD">
          236 -12 -106 callgsubr
          -82 -235 -99 callsubr
          endchar
        </CharString>
        <CharString name="uni1ECE">
          95 418 736 rmoveto
          -101 callsubr
          -48 callgsubr
          hvcurveto
          -13 hlineto
          -95 -808 -107 callsubr
          endchar
        </CharString>
        <CharString name="uni1ECF">
          286 591 rmoveto
          -101 callsubr
          -48 callgsubr
          hvcurveto
          -13 hlineto
          -61 -664 -106 callgsubr
          endchar
        </CharString>
        <CharString name="uni1ED0">
          95 543 831 -95 callgsubr
          -358 -230 -102 callgsubr
          -88 -879 -107 callsubr
          endchar
        </CharString>
        <CharString name="uni1ED1">
          411 686 -95 callgsubr
          -358 -230 -102 callgsubr
          -54 -735 -106 callgsubr
          endchar
        </CharString>
        <CharString name="uni1ED2">
          95 588 831 -81 callsubr
          -210 -227 -102 callgsubr
          -88 -879 -107 callsubr
          endchar
        </CharString>
        <CharString name="uni1ED3">
          456 686 -81 callsubr
          -210 -227 -102 callgsubr
          -54 -735 -106 callgsubr
          endchar
        </CharString>
        <CharString name="uni1ED4">
          95 558 831 rmoveto
          -101 callsubr
          -48 callgsubr
          hvcurveto
          -13 hlineto
          -276 -159 -102 callgsubr
          -88 -879 -107 callsubr
          endchar
        </CharString>
        <CharString name="uni1ED5">
          426 686 rmoveto
          -101 callsubr
          -48 callgsubr
          hvcurveto
          -13 hlineto
          -276 -159 -102 callgsubr
          -54 -735 -106 callgsubr
          endchar
        </CharString>
        <CharString name="uni1ED6">
          95 312 924 -74 callsubr
          -191 -102 callgsubr
          -88 -879 -107 callsubr
          endchar
        </CharString>
        <CharString name="uni1ED7">
          180 779 -74 callsubr
          -191 -102 callgsubr
          -54 -735 -106 callgsubr
          endchar
        </CharString>
        <CharString name="uni1ED8">
          95 293 -77 callgsubr
          -88 -879 -107 callsubr
          -65 -244 -99 callsubr
          endchar
        </CharString>
        <CharString name="uni1ED9">
          161 -77 callsubr
          -54 -735 -106 callgsubr
          -82 -235 -99 callsubr
          endchar
        </CharString>
        <CharString name="uni1EDA">
          95 612 865 -62 callsubr
          235 92 -99 callgsubr
          endchar
        </CharString>
        <CharString name="uni1EDB">
          480 720 -62 callsubr
          171 95 -98 callsubr
          endchar
        </CharString>
        <CharString name="uni1EDC">
          95 483 736 -55 callgsubr
          315 92 -99 callgsubr
          endchar
        </CharString>
        <CharString name="uni1EDD">
          351 591 -55 callgsubr
          251 95 -98 callsubr
          endchar
        </CharString>
        <CharString name="uni1EDE">
          95 474 819 rmoveto
          -48 callgsubr
          vhcurveto
          -13 -26 callsubr
          -101 callsubr
          hvcurveto
          249 9 -99 callgsubr
          endchar
        </CharString>
        <CharString name="uni1EDF">
          342 674 rmoveto
          -48 callgsubr
          vhcurveto
          -13 -26 callsubr
          -101 callsubr
          hvcurveto
          185 12 -98 callsubr
          endchar
        </CharString>
        <CharString name="uni1EE0">
          95 385 795 rmoveto
          -103 callsubr
          64 hlineto
          23 6 13 8 15 hhcurveto
          338 33 -99 callgsubr
          endchar
        </CharString>
        <CharString name="uni1EE1">
          253 650 rmoveto
          -103 callsubr
          64 hlineto
          23 6 13 8 15 hhcurveto
          274 36 -98 callsubr
          endchar
        </CharString>
        <CharString name="uni1EE2">
          95 723 828 -99 callgsubr
          -366 -525 -99 callsubr
          endchar
        </CharString>
        <CharString name="uni1EE3">
          527 686 -98 callsubr
          -263 -442 -99 callsubr
          endchar
        </CharString>
        <CharString name="uni1EE4">
          39 318 -12 -105 callsubr
          -77 -161 -99 callsubr
          endchar
        </CharString>
        <CharString name="uni1EE5">
          191 -12 -104 callgsubr
          -33 -161 -99 callsubr
          endchar
        </CharString>
        <CharString name="uni1EE6">
          39 403 736 rmoveto
          -101 callsubr
          -48 callgsubr
          hvcurveto
          -13 hlineto
          -96 -809 -105 callsubr
          endchar
        </CharString>
        <CharString name="uni1EE7">
          299 591 rmoveto
          -101 callsubr
          -48 callgsubr
          hvcurveto
          -13 hlineto
          -119 -664 -104 callgsubr
          endchar
        </CharString>
        <CharString name="uni1EE8">
          -90 callsubr
          -240 -3 -62 callsubr
          endchar
        </CharString>
        <CharString name="uni1EE9">
          -89 callsubr
          -171 -3 -62 callsubr
          endchar
        </CharString>
        <CharString name="uni1EEA">
          -90 callsubr
          -369 -132 -55 callgsubr
          endchar
        </CharString>
        <CharString name="uni1EEB">
          -89 callsubr
          -300 -132 -55 callgsubr
          endchar
        </CharString>
        <CharString name="uni1EEC">
          39 459 819 rmoveto
          -48 callgsubr
          vhcurveto
          -13 -26 callsubr
          -101 callsubr
          hvcurveto
          268 49 -88 callgsubr
          endchar
        </CharString>
        <CharString name="uni1EED">
          355 674 rmoveto
          -48 callgsubr
          vhcurveto
          -13 -26 callsubr
          -101 callsubr
          hvcurveto
          199 49 -87 callgsubr
          endchar
        </CharString>
        <CharString name="uni1EEE">
          -90 callsubr
          -467 -73 rmoveto
          -103 callsubr
          64 hlineto
          23 6 13 8 15 hhcurveto
          endchar
        </CharString>
        <CharString name="uni1EEF">
          -89 callsubr
          -398 -73 rmoveto
          -103 callsubr
          64 hlineto
          23 6 13 8 15 hhcurveto
          endchar
        </CharString>
        <CharString name="uni1EF0">
          -90 callsubr
          -596 -1041 -99 callsubr
          endchar
        </CharString>
        <CharString name="uni1EF1">
          -89 callsubr
          -506 -896 -99 callsubr
          endchar
        </CharString>
        <CharString name="uni1EF4">
          -16 226 hmoveto
          -82 callsubr
          -76 -457 -99 callsubr
          endchar
        </CharString>
        <CharString name="uni1EF5">
          -183 38 -182 -96 callsubr
          202 9 -99 callsubr
          endchar
        </CharString>
        <CharString name="uni1EF6">
          -16 373 736 rmoveto
          -101 callsubr
          -48 callgsubr
          hvcurveto
          -13 hlineto
          -158 -797 rmoveto
          -82 callsubr
          endchar
        </CharString>
        <CharString name="uni1EF7">
          -183 270 591 rmoveto
          -101 callsubr
          -48 callgsubr
          hvcurveto
          -13 hlineto
          -243 -834 -96 callsubr
          endchar
        </CharString>
        <CharString name="uni1EF8">
          -16 242 764 rmoveto
          64 hlineto
          23 6 13 8 15 -103 callsubr
          -16 -764 rmoveto
          -82 callsubr
          endchar
        </CharString>
        <CharString name="uni1EF8.loclGUA">
          -16 262 764 rmoveto
          64 hlineto
          23 6 13 8 15 -103 callsubr
          10 -776 -98 callgsubr
        </CharString>
        <CharString name="uni1EF9">
          -183 139 619 rmoveto
          64 hlineto
          23 6 13 8 15 -103 callsubr
          -101 -801 -96 callsubr
          endchar
        </CharString>
        <CharString name="uni1EF9.loclGUA">
          177 619 rmoveto
          64 hlineto
          23 6 13 8 15 -103 callsubr
          24 -801 -97 callsubr
        </CharString>
        <CharString name="uni2015">
          -14 callgsubr
        </CharString>
        <CharString name="uni203E">
          -350 72 790 rmoveto
          363 hlineto
          11 68 rlineto
          -363 hlineto
          endchar
        </CharString>
        <CharString name="uni207F">
          -318 49 370 rmoveto
          69 hlineto
          38 211 rlineto
          63 12 49 39 48 hhcurveto
          28 20 -11 -37 -8 -1 -8 -2 -10 hvcurveto
          -42 -239 rlineto
          69 hlineto
          43 244 rlineto
          2 14 2 12 11 vvcurveto
          60 -40 24 -63 -41 -39 -16 -40 -30 vhcurveto
          -5 48 -54 hlineto
          endchar
        </CharString>
        <CharString name="uni20B2">
          -93 541 422 rmoveto
          2 14 2 12 12 vvcurveto
          103 -86 52 -109 3 vhcurveto
          19 105 rlineto
          -51 hlineto
          -19 -107 -137 -14 -86 -87 -29 -162 rlinecurve
          -5 -28 -2 -26 -23 vvcurveto
          -121 62 -68 101 -16 vhcurveto
          -21 -120 rlineto
          51 hlineto
          21 117 55 1 57 14 42 43 rlinecurve
          -1 -46 rlineto
          74 hlineto
          0 callsubr
          -186 hlineto
          -15 -83 rlineto
          91 hlineto
          -1 -10 rlineto
          -43 -8 -51 -52 -88 hhcurveto
          68 388 rlineto
          2 hlineto
          67 44 -27 -61 -9 0 -9 -2 -9 hvcurveto
          -229 -268 rmoveto
          -54 12 -28 37 70 vvcurveto
          18 2 23 2 14 vhcurveto
          3 17 20 117 47 54 74 16 rlinecurve
          endchar
        </CharString>
        <CharString name="uni2105">
          202 218 311 rmoveto
          94 49 72 83 13 hvcurveto
          -79 hlineto
          -59 -10 -23 -32 -43 hhcurveto
          -37 -20 16 50 17 2 21 5 25 hvcurveto
          100 18 28 29 50 hhcurveto
          32 12 -16 -33 -12 -1 -14 -3 -16 hvcurveto
          83 hlineto
          3 17 1 16 15 vvcurveto
          70 -38 38 -88 -109 -48 -61 -133 -24 vhcurveto
          -5 -26 -2 -23 -20 vvcurveto
          -86 45 -38 95 vhcurveto
          -126 -323 rmoveto
          83 hlineto
          621 710 rlineto
          -82 hlineto
          -80 -710 rmoveto
          116 75 81 176 89 -49 42 -94 -116 -75 -81 -176 -89 48 -42 95 hvcurveto
          1 65 rmoveto
          -40 -21 16 53 16 2 20 4 24 hvcurveto
          101 18 31 29 52 hhcurveto
          40 22 -17 -54 -16 -2 -20 -4 -23 hvcurveto
          -101 -18 -32 -28 -52 hhcurveto
          endchar
        </CharString>
        <CharString name="uni2113">
          -360 147 -12 rmoveto
          32 26 9 17 28 hvcurveto
          13 73 rlineto
          -18 -25 -28 -12 -31 hhcurveto
          -33 -24 25 64 15 2 17 3 20 hvcurveto
          6 38 rlineto
          138 127 96 134 135 vvcurveto
          61 -29 42 -63 -62 -71 -56 -171 -30 vhcurveto
          -44 -253 -15 -14 -12 -10 -12 -11 rlinecurve
          -12 -70 39 32 rlineto
          -5 -22 -2 -28 -15 vvcurveto
          -75 30 -54 85 vhcurveto
          -16 330 rmoveto
          33 190 rlineto
          123 21 41 40 32 hhcurveto
          25 10 -19 -32 -99 -74 -108 -88 -95 hvcurveto
          endchar
        </CharString>
        <CharString name="uni2116">
          390 863 304 rmoveto
          56 39 14 31 29 hvcurveto
          43 45 23 103 68 vvcurveto
          91 -50 42 -91 -42 -38 -11 -23 -30 vhcurveto
          -51 -40 -30 -74 -114 vvcurveto
          -91 48 -41 94 vhcurveto
          -846 -304 rmoveto
          89 hlineto
          77 438 15 86 5 1 30 -57 247 -468 rlineto
          81 -28 callsubr
          -89 hlineto
          -83 -471 -8 -44 -4 -1 -8 14 -7 15 -8 14 rlinecurve
          -252 473 -7 callsubr
          726 -316 rmoveto
          -38 -20 18 53 16 2 20 4 24 hvcurveto
          99 18 30 32 50 hhcurveto
          38 21 -18 -51 -17 -3 -21 -4 -24 hvcurveto
          -99 -17 -30 -32 -51 hhcurveto
          -176 -172 rmoveto
          293 hlineto
          12 66 rlineto
          -293 hlineto
          endchar
        </CharString>
        <CharString name="uni2126">
          -68 callsubr
        </CharString>
        <CharString name="uni2153">
          151 59 -60 callsubr
          -678 -65 callgsubr
          553 -396 rmoveto
          74 65 47 73 33 -17 23 -28 15 hvcurveto
          2 vlineto
          38 18 28 -86 callsubr
          endchar
        </CharString>
        <CharString name="uni2154">
          151 49 334 -66 callgsubr
          15 -370 rmoveto
          80 hlineto
          671 710 -5 callgsubr
          -118 -710 rmoveto
          74 65 47 73 33 -17 23 -28 15 hvcurveto
          2 vlineto
          38 18 28 -86 callsubr
          endchar
        </CharString>
        <CharString name="uni2206">
          -71 -42 hmoveto
          585 hlineto
          -157 698 rlineto
          -333 -644 rmoveto
          277 448 105 -448 rlineto
          endchar
        </CharString>
        <CharString name="uni2215">
          -516 -295 -60 callsubr
          endchar
        </CharString>
        <CharString name="uni2219">
          -333 159 193 rmoveto
          45 26 34 38 29 -22 23 -32 -45 -26 -34 -39 -29 22 -22 32 hvcurveto
          endchar
        </CharString>
        <CharString name="uniA78B">
          -512 25 208 rmoveto
          48 hlineto
          119 379 17 99 rlineto
          -100 hlineto
          endchar
        </CharString>
        <CharString name="uniA78C">
          -527 39 288 rmoveto
          48 hlineto
          93 296 24 139 rlineto
          -90 hlineto
          endchar
        </CharString>
        <CharString name="uogonek">
          341 -34 callgsubr
          -28 hlineto
          -36 -12 14 17 40 38 18 58 28 hvcurveto
          -58 callgsubr
          -88 hlineto
          -53 -301 rlineto
          -103 -18 -85 -61 -80 hhcurveto
          -45 -33 15 54 14 1 19 4 20 hvcurveto
          60 343 -68 callgsubr
          -61 -349 -85 callgsubr
          -59 callgsubr
          vhcurveto
          7 -67 hlineto
          -62 -17 -55 -36 -61 vvcurveto
          -56 46 -16 42 vhcurveto
          endchar
        </CharString>
        <CharString name="uring">
          322 566 -69 callgsubr
          -137 -623 -104 callgsubr
          endchar
        </CharString>
        <CharString name="utilde">
          168 619 rmoveto
          64 hlineto
          23 6 13 8 15 -103 callsubr
          23 -631 -104 callgsubr
          endchar
        </CharString>
        <CharString name="v">
          -183 149 hmoveto
          88 hlineto
          286 526 2 callsubr
          -138 -263 rlineto
          -35 -65 -44 -100 0 vvcurveto
          -5 hlineto
          0 -12 106 -10 59 vhcurveto
          -47 -5 callsubr
          -91 hlineto
          endchar
        </CharString>
        <CharString name="w">
          39 108 hmoveto
          -89 callgsubr
        </CharString>
        <CharString name="wacute">
          39 365 591 -95 callgsubr
          -365 -723 rmoveto
          -89 callgsubr
        </CharString>
        <CharString name="wcircumflex">
          39 256 -77 callsubr
          -277 -723 rmoveto
          -89 callgsubr
        </CharString>
        <CharString name="wdieresis">
          39 278 -63 callgsubr
          -374 -723 rmoveto
          -89 callgsubr
        </CharString>
        <CharString name="wgrave">
          39 371 591 -81 callsubr
          -178 -720 rmoveto
          -89 callgsubr
        </CharString>
        <CharString name="x">
          -183 -48 hmoveto
          105 hlineto
          172 206 rlineto
          6 hlineto
          103 -206 rlineto
          99 hlineto
          -144 271 228 255 rlineto
          -106 hlineto
          -161 -191 rlineto
          -6 hlineto
          -95 191 rlineto
          -100 hlineto
          138 -256 rlineto
          endchar
        </CharString>
        <CharString name="y">
          -183 38 -182 -96 callsubr
          endchar
        </CharString>
        <CharString name="y.loclGUA">
          201 -182 -97 callsubr
        </CharString>
        <CharString name="yacute">
          -183 254 591 -95 callgsubr
          -324 -905 -96 callsubr
          endchar
        </CharString>
        <CharString name="yacute.loclGUA">
          292 591 -95 callgsubr
          -199 -905 -97 callsubr
        </CharString>
        <CharString name="ycircumflex">
          -183 145 -77 callsubr
          -236 -905 -96 callsubr
          endchar
        </CharString>
        <CharString name="ycircumflex.loclGUA">
          183 -77 callsubr
          -111 -905 -97 callsubr
        </CharString>
        <CharString name="ydieresis">
          -183 167 -63 callgsubr
          -333 -905 -96 callsubr
          endchar
        </CharString>
        <CharString name="ydieresis.loclGUA">
          205 -63 callgsubr
          -208 -905 -97 callsubr
        </CharString>
        <CharString name="yen">
          178 hmoveto
          88 hlineto
          30 169 rlineto
          189 1 callgsubr
          -189 hlineto
          13 70 rlineto
          189 1 callgsubr
          -164 hlineto
          0 36 39 35 45 vhcurveto
          181 233 rlineto
          -97 hlineto
          -143 -192 rlineto
          -37 -50 -38 -58 0 vvcurveto
          -4 hlineto
          0 -13 51 -26 58 vhcurveto
          -84 191 rlineto
          -99 hlineto
          107 -233 rlineto
          18 -40 26 -44 0 vvcurveto
          -174 -1 callsubr
          199 hlineto
          -13 -70 rlineto
          -199 -1 callsubr
          199 hlineto
          endchar
        </CharString>
        <CharString name="ygrave">
          -183 260 591 -81 callsubr
          -137 -902 -96 callsubr
          endchar
        </CharString>
        <CharString name="ygrave.loclGUA">
          298 591 -81 callsubr
          -12 -902 -97 callsubr
        </CharString>
        <CharString name="z">
          -183 -26 hmoveto
          -84 callsubr
          endchar
        </CharString>
        <CharString name="zacute">
          -183 264 591 -95 callgsubr
          -398 -723 rmoveto
          -84 callsubr
          endchar
        </CharString>
        <CharString name="zacute.loclPLK">
          -183 258 591 -62 callgsubr
          -330 -723 rmoveto
          -84 callsubr
          endchar
        </CharString>
        <CharString name="zcaron">
          -183 265 588 -94 callgsubr
          -209 -723 rmoveto
          -84 callsubr
          endchar
        </CharString>
        <CharString name="zdotaccent">
          -183 270 -44 callgsubr
          -313 -723 rmoveto
          -84 callsubr
          endchar
        </CharString>
        <CharString name="zero">
          235 -12 rmoveto
          145 101 76 279 48 hvcurveto
          10 56 4 48 41 vvcurveto
          161 -77 49 -126 -146 -100 -76 -279 -47 vhcurveto
          -10 -57 -5 -49 -41 vvcurveto
          -160 77 -48 126 vhcurveto
          -7 73 rmoveto
          -78 -28 50 91 39 6 48 10 54 hvcurveto
          178 33 48 104 128 hhcurveto
          78 28 -51 -92 -39 -5 -47 -10 -53 hvcurveto
          -178 -32 -50 -104 -128 hhcurveto
          endchar
        </CharString>
      <CharString index="0">
        rmoveto
        -3 callgsubr
        vhcurveto
        -67 hlineto
        -31 -60 rlineto
        -6 hlineto
        51 -25 -45 21 -72 hhcurveto
        -142 -110 -140 -219 -129 65 -62 100 67 67 32 63 37 hvcurveto
        5 hlineto
        -1 -9 0 -7 -8 vvcurveto
        -51 31 -20 42 31 24 9 7 11 vhcurveto
        10 57 rlineto
        -40 hlineto
        -20 -10 8 19 hvcurveto
        -232 -27 rmoveto
        -66 -29 43 80 150 57 131 115 76 31 -44 -80 -108 -49 -172 -135 hvcurveto
        return
      </CharString>
      <CharString index="1">
        rmoveto
        156 90 88 181 27 hvcurveto
        3 30 3 24 22 vvcurveto
        129 -79 76 -136 -156 -90 -88 -181 -27 vhcurveto
        -3 -28 -2 -24 -21 vvcurveto
        -131 79 -77 135 vhcurveto
        4 74 rmoveto
        -85 -43 43 78 -2 hvcurveto
        20 1 26 4 28 vhcurveto
        146 21 55 62 105 hhcurveto
        86 43 -43 -79 2 hvcurveto
        -20 -2 -26 -4 -28 vhcurveto
        -146 -21 -55 -61 -105 hhcurveto
        return
      </CharString>
      <CharString index="2">
        rmoveto
        113 98 -24 callsubr
        21 hvcurveto
        -86 hlineto
        -85 -14 -64 -33 -70 hhcurveto
        -95 -45 45 95 12 0 12 3 14 hvcurveto
        5 callgsubr
        8 44 rlineto
        5 27 3 24 23 vvcurveto
        119 -74 62 -132 -200 -84 -155 -187 -142 77 -66 155 vhcurveto
        -126 324 rmoveto
        98 24 59 55 92 hhcurveto
        72 48 -32 -82 -12 0 -13 -4 -14 hvcurveto
        return
      </CharString>
      <CharString index="3">
        rmoveto
        -45 callsubr
        -61 -349 -85 callgsubr
        vhcurveto
        return
      </CharString>
      <CharString index="4">
        rmoveto
        46 36 14 20 26 hvcurveto
        29 22 17 32 5 29 rrcurveto
        -61 hlineto
        -22 -7 -29 -31 -63 hhcurveto
        -61 -8 31 22 -1 hvcurveto
        -61 hlineto
        -2 -8 0 -7 -8 vvcurveto
        -48 31 -46 103 vhcurveto
        return
      </CharString>
      <CharString index="5">
        rmoveto
        94 hlineto
        72 79 43 -79 rlineto
        86 hlineto
        -82 135 rlineto
        -84 hlineto
        return
      </CharString>
      <CharString index="6">
        rmoveto
        3 17 1 16 15 vvcurveto
        133 -116 65 -169 -128 -102 -44 -77 -70 vhcurveto
        -70 -78 -38 -112 -135 vvcurveto
        -169 98 -95 187 101 85 28 68 66 vhcurveto
        -84 72 vlineto
        63 357 rlineto
        -337 hlineto
        -15 -83 rlineto
        242 hlineto
        -1 -10 rlineto
        -105 -11 -98 -90 -161 hhcurveto
        -124 -68 54 138 45 5 42 9 37 hvcurveto
        147 37 106 85 158 hhcurveto
        110 71 -41 -91 -10 -1 -11 -2 -12 hvcurveto
        return
      </CharString>
      <CharString index="7">
        rmoveto
        -104 callsubr
        endchar
      </CharString>
      <CharString index="8">
        rmoveto
        -19 -108 rlineto
        44 hlineto
        -17 -43 -33 -26 -48 -13 rrcurveto
        39 -50 -70 22 -86 hhcurveto
        -220 -139 -122 -225 -39 hvcurveto
        -6 -31 -3 -32 -33 vvcurveto
        -168 110 -99 187 219 139 122 227 39 vhcurveto
        6 31 3 32 33 vvcurveto
        64 -17 55 -31 42 vhcurveto
        75 31 44 61 13 87 9 54 rcurveline
        -198 -476 rmoveto
        -190 -33 -99 -91 -169 hhcurveto
        -125 -74 69 116 29 2 27 5 26 hvcurveto
        189 33 99 91 170 -31 callsubr
        74 -68 -116 -29 -2 -27 -5 -26 hvcurveto
        return
      </CharString>
      <CharString index="9">
        rmoveto
        166 102 72 183 31 hvcurveto
        36 200 43 243 -54 callgsubr
        -39 -218 rlineto
        -131 -23 -83 -68 -109 hhcurveto
        -77 -41 34 67 11 1 13 3 14 hvcurveto
        49 278 -54 callgsubr
        -49 -273 rlineto
        -4 -22 -2 -21 -18 vvcurveto
        -114 69 -50 117 89 70 30 65 47 vhcurveto
        6 hlineto
        -8 -45 rlineto
        -119 -21 -67 -50 -106 hhcurveto
        -97 -42 32 67 hvcurveto
        -98 -10 hlineto
        -118 93 -52 134 vhcurveto
        endchar
      </CharString>
      <CharString index="10">
        rmoveto
        153 151 62 159 hvcurveto
        221 -401 -67 148 vvcurveto
        73 86 33 106 88 61 -33 -60 -5 0 -11 -4 -15 vhcurveto
        93 hlineto
        4 20 1 17 12 vvcurveto
        110 -108 46 -144 -143 -139 -63 -135 vhcurveto
        -221 400 72 -156 vvcurveto
        -81 -85 -45 -130 -98 -67 33 69 15 5 18 3 10 vhcurveto
        -94 hlineto
        -5 -15 -3 -26 -18 vvcurveto
        -122 119 -45 151 vhcurveto
        return
      </CharString>
      <CharString index="11">
        rmoveto
        117 108 55 128 hvcurveto
        167 -284 -51 101 vvcurveto
        27 21 50 105 74 24 -31 -36 -8 -1 -7 -2 -8 vhcurveto
        86 -11 callsubr
        21 14 vvcurveto
        68 -63 54 -127 -124 -94 -66 -104 vhcurveto
        -158 283 53 -116 vvcurveto
        -56 -64 -31 -73 -65 -49 23 54 4 1 12 3 11 vhcurveto
        -87 3 callsubr
        -24 -22 vvcurveto
        -69 59 -61 152 vhcurveto
        return
      </CharString>
      <CharString index="12">
        rmoveto
        86 hlineto
        124 129 -27 callgsubr
        return
      </CharString>
      <CharString index="13">
        rmoveto
        84 2 callgsubr
        135 rlineto
        -94 hlineto
        -70 -79 -45 79 rlineto
        -86 hlineto
        return
      </CharString>
      <CharString index="14">
        -93 callsubr
        endchar
      </CharString>
      <CharString index="15">
        89 hlineto
        81 462 12 69 5 1 31 -55 266 -477 rlineto
        81 -28 callsubr
        -89 hlineto
        -81 -460 -11 -62 -4 -1 -8 15 -9 14 -8 15 rlinecurve
        -270 479 -7 callsubr
        return
      </CharString>
      <CharString index="16">
        rmoveto
        139 70 95 112 18 hvcurveto
        -85 hlineto
        -67 -13 -43 -67 -89 hhcurveto
        -70 -38 37 100 27 2 30 5 29 hvcurveto
        91 16 45 90 105 hhcurveto
        81 18 -48 -57 -10 0 -9 -1 -10 hvcurveto
        90 hlineto
        1 12 1 13 12 vvcurveto
        98 -50 72 -143 -193 -69 -179 -166 -139 61 -66 142 vhcurveto
        endchar
      </CharString>
      <CharString index="17">
        rmoveto
        43 -79 rlineto
        86 hlineto
        -82 135 rlineto
        -84 hlineto
        -129 -135 rlineto
        94 hlineto
        194 -62 rmoveto
        -31 -60 rlineto
        -6 hlineto
        51 -25 -45 21 -72 hhcurveto
        -142 -110 -140 -219 -129 65 -62 100 67 67 32 63 37 hvcurveto
        5 hlineto
        -1 -9 0 -7 -8 vvcurveto
        -51 31 -20 42 31 24 9 7 11 vhcurveto
        10 57 rlineto
        -40 hlineto
        -20 -10 8 19 -3 callgsubr
        hvcurveto
        -311 -465 -47 callgsubr
      </CharString>
      <CharString index="18">
        97 hlineto
        130 314 rlineto
        12 29 31 79 0 vvcurveto
        4 hlineto
        0 2 -78 2 -30 vhcurveto
        21 -314 rlineto
        96 hlineto
        251 -46 callsubr
        -89 hlineto
        -133 -298 rlineto
        -15 -33 -36 -91 0 vvcurveto
        -5 hlineto
        0 -3 96 -2 28 vhcurveto
        -20 298 rlineto
        -108 hlineto
        -122 -298 rlineto
        -9 -23 -37 -101 0 vvcurveto
        -5 3 callsubr
        96 -3 28 vhcurveto
        -28 298 rlineto
        -89 hlineto
        endchar
      </CharString>
      <CharString index="19">
        rmoveto
        -19 -108 rlineto
        44 hlineto
        -14 -36 -25 -24 -35 -14 rrcurveto
        -69 hlineto
        -77 -438 rlineto
        -118 -21 -79 -61 -117 hhcurveto
        -102 -58 47 91 15 2 16 3 18 hvcurveto
        75 430 -54 callgsubr
        -74 -425 rlineto
        -4 -22 -2 -21 -20 vvcurveto
        -137 93 -73 165 167 110 80 185 33 vhcurveto
        67 381 76 31 44 62 13 87 rlinecurve
        9 54 rlineto
        return
      </CharString>
      <CharString index="20">
        rmoveto
        -19 -108 rlineto
        44 hlineto
        -21 -54 -47 -28 -71 -7 rrcurveto
        -1 hlineto
        -53 -301 rlineto
        -103 -18 -85 -61 -80 hhcurveto
        -45 -33 15 54 14 2 19 3 20 hvcurveto
        60 343 -68 callgsubr
        -61 -349 -85 callgsubr
        -59 callgsubr
        vhcurveto
        -48 callsubr
        86 489 77 30 45 62 13 88 rlinecurve
        9 54 rlineto
        return
      </CharString>
      <CharString index="21">
        100 hlineto
        100 183 rlineto
        318 hlineto
        36 -183 rlineto
        100 hlineto
        return
      </CharString>
      <CharString index="22">
        rlineto
        -4 -23 -3 -24 -18 vvcurveto
        -90 60 -34 97 return
      </CharString>
      <CharString index="23">
        rmoveto
        95 24 61 60 11 hvcurveto
        104 587 -68 callgsubr
        -105 -591 rlineto
        -31 -5 -18 -17 -31 hhcurveto
        -44 hlineto
        -10 -57 rlineto
        -6 16 27 -6 24 hhcurveto
        endchar
      </CharString>
      <CharString index="24">
        rmoveto
        88 52 54 66 29 -14 26 -25 16 hvcurveto
        38 22 21 35 34 vvcurveto
        50 -35 38 -76 -78 -52 -51 -62 -26 12 -24 21 -16 vhcurveto
        -51 -21 -19 -40 -41 vvcurveto
        -51 34 -38 84 vhcurveto
        30 217 rmoveto
        -30 -18 15 27 35 27 21 38 31 18 -14 -25 -37 -33 -22 -33 hvcurveto
        -28 -162 rmoveto
        -37 -19 16 30 37 28 23 46 37 19 -15 -26 -44 -38 -21 -36 hvcurveto
        endchar
      </CharString>
      <CharString index="25">
        rmoveto
        120 77 60 151 27 hvcurveto
        86 487 -54 callgsubr
        -87 -492 rlineto
        -92 -16 -47 -33 -71 hhcurveto
        -49 -26 27 52 9 2 23 7 28 hvcurveto
        -95 hlineto
        -8 -33 -1 -25 -15 vvcurveto
        -97 61 -50 115 vhcurveto
        endchar
      </CharString>
      <CharString index="26">
        274 hlineto
        117 99 39 72 70 hvcurveto
        67 71 39 103 129 vvcurveto
        188 -115 84 -196 vhcurveto
        -234 hlineto
        -11 -603 rmoveto
        91 520 rlineto
        159 2 callgsubr
        79 -54 -147 -30 -3 -27 -4 -26 hvcurveto
        -154 -29 -112 -82 -151 hhcurveto
        return
      </CharString>
      <CharString index="27">
        rlineto
        31 5 19 17 33 hhcurveto
        52 hlineto
        11 61 rlineto
        7 -17 -29 5 -27 hhcurveto
        -98 -27 -61 -60 -10 hvcurveto
        -15 -84 rlineto
        -77 hlineto
        -13 -73 rlineto
        77 hlineto
        -91 -514 -7 callgsubr
        -32 hhcurveto
        -52 -26 callsubr
        -7 17 29 -5 27 hhcurveto
        return
      </CharString>
      <CharString index="28">
        88 hlineto
        53 301 rlineto
        106 19 69 38 67 hhcurveto
        37 hlineto
        15 85 rlineto
        0 -18 8 -28 -72 -43 -47 -44 -25 vhcurveto
        -6 hlineto
        4 79 rlineto
        -67 hlineto
        return
      </CharString>
      <CharString index="29">
        199 -12 rmoveto
        64 59 28 55 42 hvcurveto
        6 -71 65 -55 callsubr
        -45 -257 rlineto
        -6 hlineto
        46 -27 -47 26 -76 hhcurveto
        -142 -110 -133 -209 -146 68 -62 110 hvcurveto
        return
      </CharString>
      <CharString index="30">
        733 -102 callgsubr
        return
      </CharString>
      <CharString index="31">
        rmoveto
        47 hlineto
        59 88 15 84 rlineto
        -88 -6 callsubr
        35 hlineto
        endchar
      </CharString>
      <CharString index="32">
        rmoveto
        83 80 27 66 61 hvcurveto
        -63 32 71 -30 101 hhcurveto
        110 97 -24 callsubr
        20 hvcurveto
        -86 hlineto
        -85 -13 -63 -33 -67 hhcurveto
        -92 -43 45 95 12 0 12 3 14 hvcurveto
        371 hlineto
        8 44 rlineto
        5 27 3 24 23 vvcurveto
        119 -72 62 -129 -79 -60 -25 -42 -44 vhcurveto
        43 -27 -55 24 -84 hhcurveto
        -125 -107 -58 -110 hvcurveto
        85 hlineto
        2 12 rlineto
        40 8 32 43 94 hhcurveto
        82 25 -28 -42 -8 -1 -8 -1 -9 hvcurveto
        -10 -58 rlineto
        -205 -181 -34 -162 -110 99 -18 72 hvcurveto
        307 324 rmoveto
        98 23 58 55 89 hhcurveto
        69 46 -32 -82 -12 0 -13 -4 -14 hvcurveto
        -572 -251 rmoveto
        -58 -35 15 45 99 113 19 166 hvcurveto
        -6 -38 rlineto
        -91 -14 -94 -49 -72 hhcurveto
        endchar
      </CharString>
      <CharString index="33">
        -59 callsubr
        -59 -62 -29 -42 -41 vhcurveto
        -4 hlineto
        return
      </CharString>
      <CharString index="34">
        rmoveto
        84 hlineto
        64 74 rlineto
        -25 47 61 -12 72 hhcurveto
        99 87 30 55 67 hvcurveto
        95 77 56 126 160 vvcurveto
        80 -23 62 -44 44 vhcurveto
        98 113 rlineto
        -84 hlineto
        -66 -76 rlineto
        26 -47 -61 13 -72 hhcurveto
        -95 -83 -28 -50 -66 hvcurveto
        -100 -77 -59 -130 -165 vvcurveto
        -81 23 -61 44 -43 vhcurveto
        63 73 rmoveto
        -21 29 -10 40 53 vvcurveto
        43 5 40 9 37 vhcurveto
        151 37 110 88 149 hhcurveto
        46 39 -8 -17 31 hvcurveto
        -233 -523 rmoveto
        -46 -38 7 17 -31 hvcurveto
        395 456 rlineto
        21 -30 11 -40 -53 vvcurveto
        -34 -3 -31 -6 -30 vhcurveto
        -165 -31 -116 -97 -156 hhcurveto
        endchar
      </CharString>
      <CharString index="35">
        rlineto
        51 hlineto
        26 9 -6 -12 -24 -19 -6 -26 hvcurveto
        -100 hlineto
        -9 -49 rlineto
        -5 28 39 -3 36 hhcurveto
        return
      </CharString>
      <CharString index="36">
        773 -94 callsubr
        return
      </CharString>
      <CharString index="37">
        rmoveto
        -65 callsubr
        return
      </CharString>
      <CharString index="38">
        rmoveto
        71 40 47 65 45 -35 35 -49 -71 -40 -48 -65 -45 35 -34 49 hvcurveto
        6 45 rmoveto
        -29 -15 18 23 32 21 29 38 28 16 -19 -23 -32 -21 -28 -38 hvcurveto
        return
      </CharString>
      <CharString index="39">
        rlineto
        -88 hlineto
        return
      </CharString>
      <CharString index="40">
        rmoveto
        -60 callgsubr
        endchar
      </CharString>
      <CharString index="41">
        rmoveto
        252 hlineto
        10 56 rlineto
        -171 hlineto
        46 66 161 38 119 vvcurveto
        60 -44 25 -61 -74 -68 -40 -97 -5 vhcurveto
        62 hlineto
        5 25 rlineto
        30 6 19 26 48 hhcurveto
        37 10 -19 -18 -82 -204 -48 -24 -117 hvcurveto
        return
      </CharString>
      <CharString index="42">
        -370 rmoveto
        231 hlineto
        10 56 -5 callgsubr
        53 302 rlineto
        -30 hlineto
        -37 -19 -57 -14 -34 -4 -7 -40 rcurveline
        88 hlineto
        -39 -225 -68 callgsubr
        return
      </CharString>
      <CharString index="43">
        -16 289 -12 -97 callgsubr
        return
      </CharString>
      <CharString index="44">
        628 -94 callsubr
        return
      </CharString>
      <CharString index="45">
        4 callsubr
        68 129 -1 3 rlineto
        -96 hlineto
        return
      </CharString>
      <CharString index="46">
        -183 212 -12 -96 callgsubr
        return
      </CharString>
      <CharString index="47">
        95 -57 callgsubr
        return
      </CharString>
      <CharString index="48">
        64 68 34 49 40 return
      </CharString>
      <CharString index="49">
        93 -46 callsubr
        return
      </CharString>
      <CharString index="50">
        -28 callsubr
        -95 hlineto
        return
      </CharString>
      <CharString index="51">
        -24 callgsubr
        -34 callsubr
        vhcurveto
        -25 callgsubr
        35 28 31 23 18 hvcurveto
        return
      </CharString>
      <CharString index="52">
        rmoveto
        -63 132 rlineto
        -96 hlineto
        -1 -3 85 -129 rlineto
        return
      </CharString>
      <CharString index="53">
        rlineto
        -95 hlineto
        return
      </CharString>
      <CharString index="54">
        -183 13 hmoveto
        88 hlineto
        29 165 116 94 100 -259 rlineto
        97 hlineto
        -135 319 218 207 rlineto
        -109 hlineto
        -268 -253 return
      </CharString>
      <CharString index="55">
        -107 -173 vmoveto
        88 hlineto
        32 184 rlineto
        -15 25 30 -8 37 hhcurveto
        -45 callsubr
        endchar
      </CharString>
      <CharString index="56">
        39 18 hmoveto
        -88 callsubr
        return
      </CharString>
      <CharString index="57">
        rmoveto
        63 hlineto
        14 82 rlineto
        45 hlineto
        10 56 rlineto
        -45 hlineto
        31 176 rlineto
        -41 hlineto
        -14 -36 -10 -21 -12 -23 -17 -96 rcurveline
        -95 hlineto
        33 43 62 97 34 86 rrcurveto
        -70 hlineto
        -34 -87 -38 -74 -51 -70 -9 -51 rcurveline
        158 hlineto
        endchar
      </CharString>
      <CharString index="58">
        hlineto
        61 112 15 84 rlineto
        -85 -6 callsubr
        return
      </CharString>
      <CharString index="59">
        -15 -9 -7 -23 return
      </CharString>
      <CharString index="60">
        rmoveto
        -66 -29 43 80 150 57 131 115 76 31 -44 -80 -108 -49 -172 -135 hvcurveto
        endchar
      </CharString>
      <CharString index="61">
        -72 197 hmoveto
        -41 callsubr
        return
      </CharString>
      <CharString index="62">
        58 66 14 74 41 -37 17 -45 hvcurveto
        return
      </CharString>
      <CharString index="63">
        628 -99 callsubr
        return
      </CharString>
      <CharString index="64">
        hlineto
        14 83 rlineto
        return
      </CharString>
      <CharString index="65">
        hlineto
        -32 callsubr
        return
      </CharString>
      <CharString index="66">
        -16 268 -77 callgsubr
        return
      </CharString>
      <CharString index="67">
        rlineto
        76 14 43 34 79 hhcurveto
        59 30 -28 -60 -9 -2 -18 -3 -19 hvcurveto
        88 hlineto
        4 26 2 18 23 vvcurveto
        102 -69 38 -111 -122 -77 -53 -146 -26 vhcurveto
        return
      </CharString>
      <CharString index="68">
        39 18 hmoveto
        -38 callsubr
        return
      </CharString>
      <CharString index="69">
        hlineto
        13 73 rlineto
        return
      </CharString>
      <CharString index="70">
        rmoveto
        0 70 72 80 vhcurveto
        73 44 -60 71 hhcurveto
        92 58 72 0 hvcurveto
        16 92 rlineto
        0 -70 -72 -80 vhcurveto
        -73 -44 60 -71 hhcurveto
        -92 -58 -72 0 hvcurveto
        return
      </CharString>
      <CharString index="71">
        rmoveto
        71 hlineto
        -93 200 164 200 rlineto
        -79 hlineto
        -184 -200 rlineto
        return
      </CharString>
      <CharString index="72">
        -72 callgsubr
        -45 callgsubr
        9 return
      </CharString>
      <CharString index="73">
        -10 callsubr
        -34 callsubr
        hvcurveto
        9 51 rlineto
        return
      </CharString>
      <CharString index="74">
        213 rlineto
        193 -11 callgsubr
        -193 hlineto
        38 214 rlineto
        -87 hlineto
        -38 -214 rlineto
        -192 hlineto
        -15 -84 rlineto
        192 hlineto
        return
      </CharString>
      <CharString index="75">
        rmoveto
        472 -69 callsubr
        -472 hlineto
        endchar
      </CharString>
      <CharString index="76">
        13 hmoveto
        88 -55 callsubr
        return
      </CharString>
      <CharString index="77">
        -9 callgsubr
        -127 -19 callsubr
        return
      </CharString>
      <CharString index="78">
        rmoveto
        -82 -33 44 80 140 57 140 119 75 36 -35 -96 -151 -58 -122 -114 hvcurveto
        endchar
      </CharString>
      <CharString index="79">
        -34 callgsubr
        -32 hlineto
        return
      </CharString>
      <CharString index="80">
        -1 3 rlineto
        -101 hlineto
        return
      </CharString>
      <CharString index="81">
        -7 71 -64 hlineto
        return
      </CharString>
      <CharString index="82">
        -13 callgsubr
        19 22 return
      </CharString>
      <CharString index="83">
        vvcurveto
        -56 46 -18 42 return
      </CharString>
      <CharString index="84">
        rmoveto
        509 196 19 107 -439 197 -15 -87 365 -160 -422 -160 rlineto
        return
      </CharString>
      <CharString index="85">
        226 rlineto
        return
      </CharString>
      <CharString index="86">
        127 -53 8 42 -129 197 rlineto
        -21 hlineto
        -195 -189 -10 -50 147 53 return
      </CharString>
      <CharString index="87">
        -305 hlineto
        return
      </CharString>
      <CharString index="88">
        rmoveto
        15 87 -364 160 421 160 17 93 -509 -197 -19 -107 rlineto
        return
      </CharString>
      <CharString index="89">
        rmoveto
        62 hlineto
        117 515 rlineto
        -114 hlineto
        return
      </CharString>
      <CharString index="90">
        rmoveto
        98 24 59 55 92 hhcurveto
        72 48 -32 -82 -12 0 -13 -4 -14 hvcurveto
        endchar
      </CharString>
      <CharString index="91">
        108 rlineto
        return
      </CharString>
      <CharString index="92">
        rlineto
        249 hlineto
        139 106 101 142 108 -62 72 -128 hvcurveto
        return
      </CharString>
      <CharString index="93">
        317 -6 233 rmoveto
        999 hlineto
        13 75 rlineto
        -1000 hlineto
        endchar
      </CharString>
      <CharString index="94">
        -13 callsubr
        -33 -11 return
      </CharString>
      <CharString index="95">
        -19 -3 -20 return
      </CharString>
      <CharString index="96">
        hlineto
        -10 callgsubr
        return
      </CharString>
      <CharString index="97">
        15 84 rlineto
        return
      </CharString>
      <CharString index="98">
        -461 -23 callsubr
        return
      </CharString>
      <CharString index="99">
        rmoveto
        -87 hlineto
        -17 -95 rlineto
        87 hlineto
        return
      </CharString>
      <CharString index="100">
        rlineto
        -31 -5 -19 -17 return
      </CharString>
      <CharString index="101">
        rmoveto
        21 hlineto
        197 189 8 50 -147 -58 return
      </CharString>
      <CharString index="102">
        rlineto
        -80 hlineto
        return
      </CharString>
      <CharString index="103">
        -8 hmoveto
        475 hlineto
        14 79 rlineto
        -325 hlineto
        return
      </CharString>
      <CharString index="104">
        14 79 -30 callsubr
        return
      </CharString>
      <CharString index="105">
        -526 rlineto
        return
      </CharString>
      <CharString index="106">
        vvcurveto
        -92 44 -43 87 vhcurveto
        return
      </CharString>
      <CharString index="107">
        rlineto
        374 hlineto
        return
      </CharString>
      <CharString index="108">
        hlineto
        11 65 rlineto
        return
      </CharString>
      <CharString index="109">
        hlineto
        129 return
      </CharString>
      <CharString index="110">
        hlineto
        -145 -49 callsubr
        -123 hlineto
        return
      </CharString>
      <CharString index="111">
        9 49 rlineto
        return
      </CharString>
      <CharString index="112">
        381 hlineto
        return
      </CharString>
</ttFont>
